<svg width="22" height="26" viewBox="0 0 22 26" fill="none" xmlns="http://www.w3.org/2000/svg">
<path d="M14.6718 12.8264C13.5505 12.8264 12.5341 12.4663 11.7329 11.7858C10.6154 10.8353 10.0306 9.37635 10.085 7.67618C10.1374 6.02442 10.7917 4.33472 11.9281 2.91797C13.3935 1.09076 15.4424 0 17.4093 0C18.5308 0 19.5466 0.360077 20.3488 1.04191C21.4651 1.99119 22.05 3.45057 21.9968 5.15039C21.9436 6.80255 21.2902 8.4922 20.1524 9.909C18.688 11.7357 16.6387 12.8264 14.6717 12.8264H14.6718ZM17.4094 1.00441C15.7299 1.00441 13.9626 1.95838 12.6807 3.55705C11.6806 4.80304 11.1052 6.27756 11.0595 7.7089C11.0156 9.09124 11.4748 10.2637 12.3538 11.0109C12.9781 11.5415 13.7803 11.8219 14.6718 11.8219C16.3511 11.8219 18.1184 10.8679 19.4005 9.26963C20.4 8.02329 20.9754 6.54892 21.0212 5.11797C21.065 3.73563 20.6058 2.56319 19.7278 1.8166C19.1023 1.28493 18.3013 1.00441 17.4094 1.00441Z" fill="black"/>
<path d="M10.7786 12.1816L11.5312 12.8209L7.41573 17.9567L6.66309 17.3175L10.7786 12.1816Z" fill="black"/>
<path d="M2.92795 24.977L0.816895 23.1815L5.42256 17.4386C5.88475 16.8618 6.7878 16.7708 7.35067 17.2501C7.63184 17.4886 7.80606 17.8269 7.84122 18.2015C7.87542 18.576 7.76696 18.9429 7.53455 19.2331L2.92795 24.977ZM2.19026 23.0473L2.79623 23.5632L6.78195 18.5941C6.84884 18.5118 6.88001 18.4056 6.86962 18.2976C6.86018 18.1897 6.80953 18.093 6.72847 18.0243C6.46922 17.8037 6.29009 17.9331 6.17503 18.0782L2.19026 23.0473Z" fill="black"/>
<path d="M10.6323 13.1567L10.779 10.4609L11.7523 10.5166L11.6803 11.8485L12.9363 11.5229L13.1744 12.4975L10.6323 13.1567Z" fill="black"/>
<path d="M0.621113 23.4941L2.65942 25.226L2.0383 26.0007L0 24.2688L0.621113 23.4941Z" fill="black"/>
<path d="M5.85676 17.6855L7.21614 18.8407L6.59523 19.6151L5.23584 18.46L5.85676 17.6855Z" fill="black"/>
<path d="M19.8573 1.27539L20.2326 1.5952L12.2249 11.5532L11.8496 11.2333L19.8573 1.27539Z" fill="black"/>
<path d="M18.1512 0.548828L18.5267 0.868637L11.1909 9.99643L10.8154 9.67662L18.1512 0.548828Z" fill="black"/>
<path d="M15.861 0.548828L16.2362 0.868443L10.9016 7.50725L10.5264 7.18763L15.861 0.548828Z" fill="black"/>
<path d="M20.8695 2.85742L21.2449 3.17723L13.9077 12.3065L13.5322 11.9867L20.8695 2.85742Z" fill="black"/>
<path d="M21.2989 5.16992L21.6742 5.48973L16.3372 12.1265L15.9619 11.8067L21.2989 5.16992Z" fill="black"/>
<path d="M12.5733 3.13867L19.7906 9.2735L19.48 9.66081L12.2627 3.52598L12.5733 3.13867Z" fill="black"/>
<path d="M11.4513 4.53711L18.67 10.6714L18.3594 11.0587L11.1406 4.92442L11.4513 4.53711Z" fill="black"/>
<path d="M10.8819 6.4043L16.8904 11.5103L16.5797 11.8976L10.5713 6.7916L10.8819 6.4043Z" fill="black"/>
<path d="M10.9262 8.79688L14.8123 12.0983L14.5018 12.4856L10.6157 9.18418L10.9262 8.79688Z" fill="black"/>
<path d="M13.6935 1.74023L20.9112 7.87606L20.6006 8.26337L13.3828 2.12754L13.6935 1.74023Z" fill="black"/>
<path d="M15.3683 0.810547L21.3762 5.91602L21.0656 6.30332L15.0576 1.19785L15.3683 0.810547Z" fill="black"/>
<path d="M17.6568 0.404297L21.542 3.70702L21.2313 4.09432L17.3462 0.791604L17.6568 0.404297Z" fill="black"/>
</svg>
