<svg width="42" height="42" fill="none" xmlns="http://www.w3.org/2000/svg"><circle cx="21" cy="21" r="21" fill="url(#a)"/><circle opacity=".152" cx="21" cy="21" r="17.5" stroke="#fff"/><path d="M29 15H13c-1.103 0-2 .841-2 1.875v8.25c0 1.034.897 1.875 2 1.875h16c1.103 0 2-.841 2-1.875v-8.25C31 15.841 30.103 15 29 15Z" fill="#fff"/><path d="M20.3 19.698h-1.69l-.523-1.508c-.109-.315-.408-.518-.761-.518-.353 0-.652.203-.76.518l-.523 1.508H14.35a.784.784 0 0 0-.76.518.715.715 0 0 0 .29.839l1.369.932-.523 1.508a.715.715 0 0 0 .29.838.835.835 0 0 0 .941 0l1.368-.931 1.369.932a.83.83 0 0 0 .94 0 .714.714 0 0 0 .291-.839l-.523-1.508 1.369-.932a.714.714 0 0 0 .29-.838.786.786 0 0 0-.76-.519Zm-1.368 1.682a.723.723 0 0 0-.291.838l.523 1.508-1.369-.931a.835.835 0 0 0-.94 0l-1.368.931.522-1.508a.722.722 0 0 0-.29-.838l-1.369-.932h1.692a.796.796 0 0 0 .76-.519l.521-1.512.002.004.523 1.508c.108.31.413.518.76.518H20.3l-1.368.933Z" fill="#8BCFF2"/><path d="M22.82 23.688a.224.224 0 0 0-.068-.034.416.416 0 0 0-.436.079.38.38 0 0 0-.116.266c0 .049.012.098.032.143a.42.42 0 0 0 .084.123.435.435 0 0 0 .36.102.253.253 0 0 0 .076-.023.23.23 0 0 0 .068-.034.238.238 0 0 0 .06-.044.342.342 0 0 0 .088-.124.35.35 0 0 0 .032-.143.37.37 0 0 0-.18-.31ZM24.5 24c0 .207-.179.375-.4.375-.22 0-.4-.168-.4-.375s.18-.375.4-.375c.221 0 .4.168.4.375Zm3 0c0 .207-.179.375-.4.375-.22 0-.4-.168-.4-.375s.18-.375.4-.375c.221 0 .4.168.4.375ZM26 24c0 .207-.179.375-.4.375-.22 0-.4-.168-.4-.375s.18-.375.4-.375c.221 0 .4.168.4.375Zm2.316-.265A.38.38 0 0 0 28.2 24a.38.38 0 0 0 .116.266c.04.034.08.06.132.079a.418.418 0 0 0 .436-.08A.38.38 0 0 0 29 24a.38.38 0 0 0-.116-.267.44.44 0 0 0-.568 0Z" fill="#84CBF1"/><defs><linearGradient id="a" x1="9" y1="7.5" x2="26.25" y2="42" gradientUnits="userSpaceOnUse"><stop stop-color="#B7EAFF"/><stop offset="1" stop-color="#57B1E4"/></linearGradient></defs></svg>