<svg width="38" height="32" fill="none" xmlns="http://www.w3.org/2000/svg"><path fill-rule="evenodd" clip-rule="evenodd" d="M19 19.2c-7.096 0-11.083 2.015-11.083 6.4S11.904 32 19 32s11.083-2.015 11.083-6.4S26.096 19.2 19 19.2Z" fill="#fff"/><path d="m31.623 17.6.185.006c.644.059 1.28.167 1.877.317l.44.12c1.697.437 3.015 1.3 3.585 2.869a5.011 5.011 0 0 1 0 3.36c-.566 1.561-1.861 2.413-3.567 2.874a1.582 1.582 0 0 1-1.938-1.133 1.602 1.602 0 0 1 1.12-1.959c.81-.218 1.284-.53 1.41-.88.13-.361.13-.804.002-1.161-.129-.354-.605-.666-1.447-.883a9.119 9.119 0 0 0-1.765-.336 1.595 1.595 0 0 1-1.435-1.737 1.59 1.59 0 0 1 1.533-1.456Zm-25.431.006c.871-.079 1.64.57 1.718 1.45a1.595 1.595 0 0 1-1.435 1.737 9.131 9.131 0 0 0-1.354.226l-.465.125c-.788.203-1.263.514-1.392.869-.13.358-.13.798.002 1.16.072.201.546.559 1.539.922a1.607 1.607 0 0 1 .95 2.05 1.579 1.579 0 0 1-2.028.96C1.94 26.45.755 25.554.292 24.272a4.99 4.99 0 0 1 0-3.362c.529-1.463 1.713-2.313 3.205-2.763l.324-.09a12.252 12.252 0 0 1 2.371-.452Z" opacity=".5" fill="#fff"/><path fill-rule="evenodd" clip-rule="evenodd" d="M19 0c-4.39 0-7.916 3.564-7.916 8S14.61 16 19 16c4.39 0 7.917-3.564 7.917-8S23.39 0 19 0Z" fill="#fff"/><path opacity=".5" d="M30.084 3.2c3.497 0 6.333 2.866 6.333 6.4 0 3.535-2.836 6.4-6.334 6.4a1.592 1.592 0 0 1-1.583-1.6c0-.82.611-1.497 1.399-1.589l.184-.01c1.749 0 3.167-1.434 3.167-3.2 0-1.768-1.418-3.2-3.166-3.2A1.592 1.592 0 0 1 28.5 4.8c0-.884.709-1.6 1.584-1.6Zm-22.167 0c.874 0 1.583.717 1.583 1.6 0 .884-.709 1.6-1.583 1.6-1.749 0-3.167 1.433-3.167 3.2 0 1.687 1.292 3.07 2.93 3.191l.237.01c.874 0 1.583.716 1.583 1.6 0 .883-.709 1.6-1.583 1.6-3.497 0-6.333-2.866-6.333-6.4 0-3.535 2.836-6.4 6.333-6.4Z" fill="#fff"/></svg>