<svg width="23" height="23" viewBox="0 0 23 23" fill="none" xmlns="http://www.w3.org/2000/svg">
<path d="M11.5 2.09282C16.6857 2.09282 20.9071 6.31425 20.9071 11.5C20.9071 16.6857 16.7071 20.9285 11.5 20.9285C6.29286 20.9285 2.09286 16.7071 2.09286 11.5C2.09286 6.29282 6.31429 2.09282 11.5 2.09282ZM11.5 1C5.71429 1 1 5.71429 1 11.5C1 17.2857 5.69286 22 11.5 22C17.3071 22 22 17.3071 22 11.5C22 5.69286 17.3071 1 11.5004 1H11.5Z" fill="black" stroke="black" stroke-width="0.5"/>
<path d="M11.5002 8.84232C8.15738 8.84232 5.0502 8.15653 2.9502 6.95657L3.48591 6.01367C5.4144 7.128 8.32877 7.74935 11.5002 7.74935C14.6716 7.74935 17.5859 7.10645 19.5145 6.01367L20.0502 6.95657C17.9715 8.15668 14.8645 8.84232 11.5002 8.84232Z" fill="black" stroke="black" stroke-width="0.5"/>
<path d="M19.5145 16.9849C17.586 15.8706 14.6716 15.2492 11.5002 15.2492C8.3288 15.2492 5.41448 15.8921 3.48591 16.9849L2.9502 16.042C5.02877 14.842 8.15734 14.1562 11.5002 14.1562C14.843 14.1562 17.9502 14.842 20.0502 16.042L19.5145 16.9849Z" fill="black" stroke="black" stroke-width="0.5"/>
</svg>
