<svg width="20" height="29" viewBox="0 0 20 29" fill="none" xmlns="http://www.w3.org/2000/svg">
<path d="M18.9639 2.57115C18.8915 2.30461 18.7183 2.08243 18.4765 1.94544L17.0514 1.13778C16.8934 1.04769 16.7132 1 16.5305 1C16.1568 1 15.8097 1.19686 15.6249 1.51266C15.4855 1.74917 15.4488 2.02592 15.5214 2.29227C15.5519 2.40395 15.601 2.50719 15.6646 2.60022L12.0291 8.78951L11.9928 8.7691C11.7532 8.63269 11.4801 8.56046 11.2034 8.56046C10.6365 8.56046 10.1101 8.85879 9.82894 9.33867L1.38881 23.712C1.00156 24.3711 0.899413 25.1416 1.10112 25.8818C1.30282 26.6216 1.78287 27.2382 2.45282 27.6179C2.89274 27.8679 3.39351 28 3.90125 28C4.9419 28 5.90951 27.4522 6.42644 26.5704L14.865 12.198C15.0761 11.84 15.1324 11.4212 15.0234 11.0186C14.9141 10.6149 14.6526 10.2781 14.2849 10.0687L14.2489 10.0486L17.8834 3.86087C17.9066 3.86244 17.9299 3.86322 17.9535 3.86322C18.3269 3.86322 18.6741 3.66597 18.8594 3.34956C18.9991 3.11364 19.0362 2.8373 18.964 2.57155L18.9639 2.57115ZM13.5183 9.97487L11.5968 12.0462L12.4611 9.37232L16.1918 3.02125L17.25 3.62144L13.5183 9.97487ZM14.3758 11.1882C14.4387 11.4204 14.4065 11.6614 14.285 11.8675L5.84593 26.2404C5.4483 26.9189 4.70313 27.3403 3.9013 27.3403C3.51126 27.3403 3.12639 27.2388 2.78782 27.0463C2.27308 26.7544 1.90397 26.2802 1.74855 25.7106C1.59332 25.1408 1.67153 24.5481 1.9692 24.0415L10.4098 9.66769C10.5716 9.39114 10.8759 9.2194 11.2035 9.2194C11.3625 9.2194 11.5195 9.26081 11.6586 9.34011L11.7512 9.39212L10.4948 13.2779C10.4828 13.3148 10.4779 13.3525 10.4793 13.3896C10.4832 13.5007 10.5443 13.6055 10.6466 13.6636C10.648 13.6644 10.6496 13.6648 10.6512 13.6658C10.665 13.6734 10.6792 13.6797 10.6935 13.6852C10.6993 13.6874 10.7053 13.6891 10.7111 13.6911C10.7217 13.6944 10.7324 13.6974 10.7434 13.6997C10.7498 13.7011 10.756 13.7025 10.7624 13.7035C10.7743 13.7052 10.7861 13.7064 10.7981 13.7068C10.8031 13.707 10.808 13.7078 10.8128 13.7078H10.8142C10.8292 13.7078 10.844 13.7064 10.8587 13.7044C10.8633 13.7038 10.8679 13.7033 10.8725 13.7023C10.8876 13.6997 10.9026 13.6962 10.9174 13.6917C10.9204 13.6907 10.9234 13.6895 10.9264 13.6883C10.9393 13.6838 10.9521 13.6785 10.9645 13.6722C10.9679 13.6705 10.9714 13.6689 10.9748 13.6671C10.9886 13.6597 11.002 13.6512 11.0147 13.6418C11.0181 13.6395 11.0211 13.6367 11.0245 13.6342C11.0371 13.6242 11.0491 13.6136 11.0602 13.6018C11.0608 13.6012 11.0614 13.6008 11.062 13.6002L13.8576 10.587L13.9515 10.6396C14.162 10.7599 14.3128 10.9544 14.3761 11.1878L14.3758 11.1882ZM18.2793 3.01924C18.2126 3.13288 18.0879 3.20354 17.9537 3.20354C17.9074 3.20354 17.8631 3.19491 17.8204 3.17822C17.8014 3.16998 17.7839 3.16174 17.7691 3.15349L16.3416 2.34132C16.3253 2.33209 16.3075 2.32051 16.2885 2.30736C16.2309 2.25928 16.189 2.1949 16.1686 2.12071C16.1425 2.02532 16.1553 1.92699 16.2051 1.84239C16.2712 1.72954 16.3959 1.65927 16.5303 1.65927C16.5952 1.65927 16.659 1.67615 16.7159 1.70854L18.1418 2.51679C18.2282 2.56566 18.29 2.64535 18.3162 2.74133C18.3421 2.83652 18.3291 2.93466 18.2793 3.01925L18.2793 3.01924Z" fill="black" stroke="black" stroke-width="0.5"/>
</svg>
