<svg width="28" height="18" viewBox="0 0 28 18" fill="none" xmlns="http://www.w3.org/2000/svg">
<path d="M22.7687 13.6855C22.6548 13.6855 22.5396 13.6531 22.4385 13.585L20.6765 12.4074C20.5543 12.3255 20.4674 12.201 20.4334 12.0579L17.8116 0.703733C17.7729 0.534208 17.814 0.355416 17.9243 0.218138C18.0346 0.082017 18.2016 0.00131026 18.3801 0.000148689C18.7689 0.000148689 22.2696 -0.0207042 23.5862 0.431491C24.3885 0.706051 25.2178 1.48916 25.172 2.39919C25.1238 3.37154 24.17 4.08652 22.3386 4.52481C22.0226 4.59393 21.7054 4.40838 21.6291 4.10042C21.5528 3.79014 21.7453 3.47871 22.0613 3.40378C23.4686 3.06704 23.9842 2.62182 23.9984 2.34279C24.0137 2.0441 23.5732 1.64734 23.1984 1.51932C22.4232 1.25402 20.3956 1.17216 19.1211 1.15594L21.5292 11.5819L23.1008 12.6326C23.3699 12.8114 23.4391 13.1702 23.2558 13.4329C23.1408 13.5967 22.9565 13.6855 22.7685 13.6855H22.7687Z" fill="black"/>
<path d="M12.9475 12.42C12.7195 12.42 12.5034 12.2896 12.4071 12.0693L10.4324 7.53561C10.3056 7.2427 10.4431 6.90366 10.7414 6.77891C11.0385 6.65437 11.3839 6.78817 11.5131 7.08339L13.4877 11.6171C13.6145 11.91 13.4771 12.2491 13.1787 12.3738C13.1024 12.4049 13.0249 12.42 12.9475 12.42H12.9475Z" fill="black"/>
<path d="M11.2475 8.51683C11.0125 8.51683 10.7905 8.37723 10.7001 8.14901L8.54239 2.69508C8.42498 2.3987 8.57523 2.06427 8.87709 1.94999C9.17777 1.83357 9.51957 1.98108 9.63717 2.27861L11.7939 7.73255C11.9113 8.02892 11.761 8.36335 11.4592 8.47763C11.3898 8.50408 11.3182 8.51683 11.2476 8.51683H11.2475Z" fill="black"/>
<path d="M12.6882 3.68938C12.653 3.68938 12.6178 3.6859 12.5824 3.68011L6.99224 2.68131C6.67267 2.62358 6.46127 2.32372 6.52007 2.01017C6.57769 1.69757 6.88545 1.49695 7.20268 1.54659L12.7928 2.54539C13.1124 2.60312 13.3238 2.90297 13.265 3.21653C13.2144 3.49437 12.9665 3.68938 12.6882 3.68938H12.6882Z" fill="black"/>
<path d="M14.02 15.331C12.7713 15.331 11.7563 14.3333 11.7563 13.1073C11.7563 11.8812 12.7725 10.8848 14.02 10.8848C15.2676 10.8848 16.2837 11.8812 16.2837 13.1073C16.2835 14.3334 15.2674 15.331 14.02 15.331ZM14.02 12.0394C13.4198 12.0394 12.9312 12.5192 12.9312 13.1085C12.9312 13.6989 13.4198 14.1787 14.02 14.1787C14.6202 14.1787 15.1089 13.6989 15.1089 13.1085C15.1089 12.5192 14.6202 12.0394 14.02 12.0394Z" fill="black"/>
<path d="M5.64193 13.0389H5.62305C5.29877 13.0285 5.0439 12.7632 5.05452 12.4438C5.28952 5.08789 18.6185 4.47547 19.1859 4.45224C19.5055 4.43255 19.7826 4.6876 19.7967 5.00465C19.8097 5.32304 19.557 5.59162 19.2341 5.6055C19.1061 5.61014 6.43025 6.19133 6.22938 12.4795C6.21778 12.7919 5.95702 13.0389 5.64218 13.0389H5.64193Z" fill="black"/>
<path d="M14.6493 12.1604C14.5142 12.1604 14.3791 12.1154 14.2688 12.0231C14.0222 11.8167 13.9915 11.4534 14.2019 11.2101C16.2129 8.88734 18.6939 5.21392 18.7185 5.17685C18.8959 4.91271 19.2601 4.83664 19.5326 5.01427C19.8028 5.18959 19.8768 5.54835 19.6982 5.81363C19.5948 5.96578 17.1527 9.58156 15.0969 11.9576C14.9807 12.0924 14.8161 12.1605 14.6493 12.1605L14.6493 12.1604Z" fill="black"/>
<path d="M5.64098 17.9998C2.53051 17.9998 0 15.5154 0 12.4613C0 9.40724 2.53036 6.92188 5.64098 6.92188C8.75145 6.92188 11.282 9.40625 11.282 12.4613C11.2831 15.5141 8.7516 17.9998 5.64098 17.9998ZM5.64098 8.07504C3.17768 8.07504 1.17476 10.0427 1.17476 12.4612C1.17476 14.8797 3.17888 16.8463 5.64098 16.8463C8.10308 16.8463 10.1072 14.8798 10.1072 12.4612C10.107 10.0427 8.10428 8.07504 5.64098 8.07504Z" fill="black"/>
<path d="M22.3592 17.9998C19.2488 17.9998 16.7183 15.5154 16.7183 12.4613C16.7183 9.40724 19.2486 6.92188 22.3592 6.92188C25.4697 6.92188 28.0002 9.40625 28.0002 12.4613C28.0002 15.5141 25.4701 17.9998 22.3592 17.9998ZM22.3592 8.07504C19.8959 8.07504 17.893 10.0427 17.893 12.4612C17.893 14.8797 19.8971 16.8463 22.3592 16.8463C24.8213 16.8463 26.8255 14.8798 26.8255 12.4612C26.8255 10.0427 24.8213 8.07504 22.3592 8.07504Z" fill="black"/>
</svg>
