<svg width="22" height="22" viewBox="0 0 22 22" fill="none" xmlns="http://www.w3.org/2000/svg">
<path fill-rule="evenodd" clip-rule="evenodd" d="M11.7277 4.65664L8.87846 1.80739C7.70689 0.635818 5.80739 0.635818 4.63582 1.80739L1.80739 4.63582C0.635818 5.80739 0.635818 7.70689 1.80739 8.87846L3.21499 10.2861L3.22161 10.2927L3.22829 10.2994L4.65664 11.7277L2.45653 13.9278C2.31693 14.0674 2.22177 14.2452 2.18305 14.4388L1.12239 19.7421C0.982448 20.4418 1.59937 21.0588 2.29909 20.9188L7.60239 19.8582C7.79598 19.8194 7.97378 19.7243 8.11338 19.5847L10.3135 17.3846L13.1211 20.1922C14.2927 21.3637 16.1922 21.3637 17.3637 20.1922L20.1922 17.3637C21.3637 16.1922 21.3637 14.2927 20.1922 13.1211L17.3846 10.3135L19.9201 7.77797C21.0917 6.60639 21.0917 4.7069 19.9201 3.53532L18.5059 2.12111C17.3343 0.949538 15.4348 0.949538 14.2632 2.12111L11.7277 4.65664ZM3.2216 6.05003C2.83108 6.44056 2.83108 7.07372 3.2216 7.46424L3.92874 8.17139L5.34293 6.7572C5.73345 6.36668 6.36662 6.36668 6.75714 6.7572C7.14767 7.14773 7.14767 7.78089 6.75714 8.17142L5.34296 9.5856L6.07085 10.3135L10.3135 6.07085L7.46424 3.2216C7.07372 2.83108 6.44056 2.83108 6.05003 3.2216L3.2216 6.05003ZM15.9703 11.7277L11.7277 15.9703L12.414 16.6566L13.1211 15.9495C13.5116 15.559 14.1448 15.559 14.5353 15.9495C14.9258 16.3401 14.9258 16.9732 14.5353 17.3638L13.8282 18.0709L14.5353 18.778C14.9258 19.1685 15.559 19.1685 15.9495 18.778L18.778 15.9495C19.1685 15.559 19.1685 14.9258 18.778 14.5353L15.9703 11.7277ZM18.5059 4.94954L17.0917 3.53532C16.7011 3.1448 16.068 3.1448 15.6775 3.53532L14.2632 4.94956L17.0917 7.77798L18.5059 6.36375C18.8964 5.97323 18.8964 5.34006 18.5059 4.94954ZM4.08483 15.128L12.849 6.36377L15.6774 9.1922L6.91326 17.9564L3.37773 18.6635L4.08483 15.128Z" fill="#1A1D1F"/>
</svg>
