<svg width="16" height="16" viewBox="0 0 16 16" fill="none" xmlns="http://www.w3.org/2000/svg">
<path fill-rule="evenodd" clip-rule="evenodd" d="M8.66795 3.33268C8.66795 2.96449 8.36947 2.66602 8.00128 2.66602C7.63309 2.66602 7.33462 2.96449 7.33462 3.33268V8.7235L5.47267 6.86155C5.21232 6.6012 4.79021 6.6012 4.52986 6.86155C4.26951 7.1219 4.26951 7.54401 4.52986 7.80436L7.05848 10.333C7.57918 10.8537 8.4234 10.8537 8.9441 10.333L11.4714 7.80566C11.7318 7.54531 11.7318 7.1232 11.4714 6.86285C11.2111 6.6025 10.789 6.6025 10.5286 6.86285L8.66795 8.72352V3.33268Z" fill="#9A9FA5"/>
<path fill-rule="evenodd" clip-rule="evenodd" d="M2.66667 9.33301C3.03486 9.33301 3.33333 9.63148 3.33333 9.99967V11.333C3.33333 11.7012 3.63181 11.9997 4 11.9997H12C12.3682 11.9997 12.6667 11.7012 12.6667 11.333V9.99967C12.6667 9.63148 12.9651 9.33301 13.3333 9.33301C13.7015 9.33301 14 9.63148 14 9.99967V11.333C14 12.4376 13.1046 13.333 12 13.333H4C2.89543 13.333 2 12.4376 2 11.333V9.99967C2 9.63148 2.29848 9.33301 2.66667 9.33301Z" fill="#9A9FA5"/>
</svg>
