<svg width="37" height="32" fill="none" xmlns="http://www.w3.org/2000/svg"><path fill-rule="evenodd" clip-rule="evenodd" d="M27.38 0h-18c-4.971 0-9 3.98-9 8.889V23.11c0 4.91 4.029 8.889 9 8.889h17.985l.39-.009c4.788-.205 8.606-4.1 8.613-8.877L36.374 8.9l.005-.015c0-4.91-4.03-8.89-9-8.885Z" fill="#fff"/><path fill-rule="evenodd" clip-rule="evenodd" d="M9.906 9.54a1.77 1.77 0 0 1 2.376-.154l.17.154 2.109 2.158a5.311 5.311 0 0 0 7.377.248l.26-.248 2.108-2.159a1.771 1.771 0 0 1 2.546 0c.649.665.699 1.71.15 2.432l-.15.174-2.109 2.158a8.853 8.853 0 0 1-12.402.316l-.326-.316-2.109-2.159a1.873 1.873 0 0 1 0-2.604Z" fill="#A8A0E0"/></svg>