<svg width="22" height="22" viewBox="0 0 22 22" fill="none" xmlns="http://www.w3.org/2000/svg">
<path d="M21.9743 11.7199C21.81 14.2335 20.7878 16.6145 19.0788 18.465C17.3696 20.3156 15.0769 21.5233 12.5843 21.8866L12.4854 21.1754C12.9637 21.1043 13.4366 21.0002 13.9006 20.8637L13.8162 20.8344L15.0189 17.1424L15.5945 16.7244H19.4921V16.8088C20.5357 15.2892 21.1488 13.5155 21.2666 11.6758L21.9743 11.7199Z" fill="black"/>
<path d="M22 11.002C22 11.244 22 11.4823 21.9744 11.7353L21.2631 11.6876V11.321L21.2082 11.3943L18.0768 9.07716L14.5753 10.2137L14.3589 9.5392L17.8494 8.40261L19.0631 4.67757L19.1401 4.70319C17.9485 3.17119 16.3501 2.00498 14.5277 1.3375L14.7808 0.673828C16.8974 1.44843 18.7249 2.85446 20.0162 4.70182C21.3074 6.54913 22.0001 8.74826 22.0002 11.0023L22 11.002Z" fill="black"/>
<path d="M13.4348 13.7437L15.5907 16.7171L15.0151 17.1351L12.8592 14.1617H9.1413L6.98172 17.1315L6.40978 16.7172L8.56567 13.7437L7.41797 10.2094L3.92383 9.07649L4.1402 8.40194L7.63804 9.53483L10.6445 7.34961H11.3559L14.3624 9.53483L14.5824 10.2094L13.4348 13.7437Z" fill="black"/>
<path d="M14.7805 0.67288L14.5275 1.33655L14.4578 1.30724L14.5127 1.38059L11.3595 3.67199V7.33827L10.6446 7.33843V3.67215L7.49141 1.37689L7.54635 1.30355L7.47668 1.33286L7.22363 0.669184L7.22379 0.669338C9.6637 -0.223113 12.3406 -0.223113 14.7805 0.669338V0.67288Z" fill="black"/>
<path d="M11 21.9997C8.54999 21.9993 6.17003 21.1812 4.23802 19.6748C2.3057 18.1686 0.931853 16.0602 0.333984 13.6843L1.00873 13.5156C1.30275 14.6953 1.80561 15.8128 2.49356 16.8153V16.7309H6.40958L6.98152 17.1415L8.18783 20.8447L8.0999 20.874H8.09974C9.52671 21.2941 11.0276 21.4004 12.4996 21.1856L12.5986 21.8896V21.8895C12.0691 21.9645 11.5348 22.0013 11 21.9995L11 21.9997Z" fill="black"/>
<path d="M0.00054452 11.0003C0.00100489 8.74619 0.694149 6.54651 1.98609 4.69908C3.27804 2.85164 5.10629 1.44605 7.22348 0.671875L7.47653 1.33555C5.65012 2.00535 4.05003 3.17705 2.86022 4.71597L2.93726 4.67561L4.13987 8.38223L3.94176 9.07521L0.788561 11.3666L0.718894 11.275C0.734239 12.03 0.831224 12.7811 1.00862 13.5151L0.319294 13.6801C0.101081 12.8036 -0.00602775 11.9032 0.000261672 11L0.00054452 11.0003Z" fill="black"/>
</svg>
