<svg width="190" height="172" viewBox="0 0 190 172" fill="none" xmlns="http://www.w3.org/2000/svg">
<g opacity="0.3" filter="url(#filter0_dii_583_17014)">
<path d="M186 148C186 153.601 186 156.401 184.91 158.54C183.951 160.422 182.422 161.951 180.54 162.91C178.401 164 175.601 164 170 164L4 164L4.00001 -1.59109e-05L170 -1.39876e-06C175.601 -9.09151e-07 178.401 -6.64344e-07 180.54 1.08993C182.422 2.04867 183.951 3.57847 184.91 5.46009C186 7.59921 186 10.3995 186 16L186 148Z" fill="white" fill-opacity="0.5"/>
<path d="M170 163.5L4.5 163.5L4.50001 0.499984L170 0.499999C172.809 0.499999 174.885 0.50038 176.527 0.634582C178.164 0.768295 179.326 1.03236 180.313 1.53543C182.1 2.44623 183.554 3.89955 184.465 5.68709C184.968 6.67441 185.232 7.83614 185.365 9.47273C185.5 11.1152 185.5 13.1915 185.5 16L185.5 148C185.5 150.809 185.5 152.885 185.365 154.527C185.232 156.164 184.968 157.326 184.465 158.313C183.554 160.1 182.1 161.554 180.313 162.465C179.326 162.968 178.164 163.232 176.527 163.365C174.885 163.5 172.809 163.5 170 163.5Z" stroke="white"/>
</g>
<defs>
<filter id="filter0_dii_583_17014" x="0" y="-1" width="190" height="173" filterUnits="userSpaceOnUse" color-interpolation-filters="sRGB">
<feFlood flood-opacity="0" result="BackgroundImageFix"/>
<feColorMatrix in="SourceAlpha" type="matrix" values="0 0 0 0 0 0 0 0 0 0 0 0 0 0 0 0 0 0 127 0" result="hardAlpha"/>
<feMorphology radius="4" operator="erode" in="SourceAlpha" result="effect1_dropShadow_583_17014"/>
<feOffset dy="4"/>
<feGaussianBlur stdDeviation="4"/>
<feColorMatrix type="matrix" values="0 0 0 0 0 0 0 0 0 0 0 0 0 0 0 0 0 0 0.25 0"/>
<feBlend mode="multiply" in2="BackgroundImageFix" result="effect1_dropShadow_583_17014"/>
<feBlend mode="normal" in="SourceGraphic" in2="effect1_dropShadow_583_17014" result="shape"/>
<feColorMatrix in="SourceAlpha" type="matrix" values="0 0 0 0 0 0 0 0 0 0 0 0 0 0 0 0 0 0 127 0" result="hardAlpha"/>
<feOffset dy="2"/>
<feComposite in2="hardAlpha" operator="arithmetic" k2="-1" k3="1"/>
<feColorMatrix type="matrix" values="0 0 0 0 1 0 0 0 0 1 0 0 0 0 1 0 0 0 0.25 0"/>
<feBlend mode="normal" in2="shape" result="effect2_innerShadow_583_17014"/>
<feColorMatrix in="SourceAlpha" type="matrix" values="0 0 0 0 0 0 0 0 0 0 0 0 0 0 0 0 0 0 127 0" result="hardAlpha"/>
<feOffset dy="-1"/>
<feGaussianBlur stdDeviation="0.5"/>
<feComposite in2="hardAlpha" operator="arithmetic" k2="-1" k3="1"/>
<feColorMatrix type="matrix" values="0 0 0 0 0 0 0 0 0 0 0 0 0 0 0 0 0 0 0.04 0"/>
<feBlend mode="multiply" in2="effect2_innerShadow_583_17014" result="effect3_innerShadow_583_17014"/>
</filter>
</defs>
</svg>
