<svg width="22" height="23" xmlns="http://www.w3.org/2000/svg"><defs><linearGradient x1="0%" y1="96.46%" x2="56.326%" y2="122.149%" id="a"><stop stop-color="#FD8815" offset="0%"/><stop stop-color="#FA5009" offset="100%"/></linearGradient><linearGradient x1="3.095%" y1="96.46%" x2="66.597%" y2="3.54%" id="b"><stop stop-color="#FCD233" offset="0%"/><stop stop-color="#F8A617" offset="100%"/></linearGradient><linearGradient x1="36.383%" y1="67.836%" x2="-17.742%" y2="147.869%" id="c"><stop stop-color="#4F8390" offset="0%"/><stop stop-color="#0CF" offset="100%"/></linearGradient></defs><g fill="none" fill-rule="evenodd"><path d="M1.047 18.642a1.057 1.057 0 0 1-.83-.39.977.977 0 0 1-.182-.872c.083-.303.307-.55.607-.67.3-.121.64-.1.92.056a.983.983 0 0 1 .218 1.582 1.055 1.055 0 0 1-.733.294Zm9.931-12.094a1.95 1.95 0 0 1-1.35-.542 1.81 1.81 0 0 1-.558-1.304c0-.488.202-.957.56-1.302a1.95 1.95 0 0 1 1.353-.539c.507 0 .993.195 1.351.54.358.346.56.815.56 1.303-.001.49-.203.958-.562 1.304-.36.346-.846.54-1.354.54Zm6.637 11.08c-.507 0-.994-.195-1.352-.54a1.81 1.81 0 0 1-.56-1.304c0-.489.201-.958.56-1.303a1.95 1.95 0 0 1 1.352-.54c.507 0 .993.194 1.352.54.359.345.56.814.56 1.303s-.203.957-.561 1.302a1.95 1.95 0 0 1-1.351.541Zm-13.389 0a1.952 1.952 0 0 1-1.35-.543 1.81 1.81 0 0 1-.559-1.303c0-.489.203-.957.562-1.303a1.95 1.95 0 0 1 1.352-.538c.507 0 .993.194 1.351.54.358.346.56.814.56 1.303-.001.49-.203.958-.563 1.304-.359.345-.845.54-1.353.54Zm6.752-3.694c-.507 0-.993-.196-1.35-.542a1.81 1.81 0 0 1-.558-1.303c0-.489.202-.957.56-1.303a1.95 1.95 0 0 1 1.353-.538c.507 0 .993.194 1.351.54.358.345.56.814.56 1.303a1.812 1.812 0 0 1-.562 1.303c-.36.346-.846.54-1.354.54Zm.041-4.531c-.277 0-.542-.106-.737-.294a.986.986 0 0 1-.306-.711c0-.267.11-.522.306-.71.195-.19.46-.295.737-.295.276 0 .542.106.737.294a.987.987 0 0 1 .306.711c0 .266-.11.522-.306.71-.195.19-.46.295-.737.295Zm3.278 5.703c-.277 0-.542-.106-.738-.294a.987.987 0 0 1-.305-.711c0-.267.11-.522.305-.71.196-.19.461-.295.738-.295.276 0 .541.106.737.294a.988.988 0 0 1 .305.71.99.99 0 0 1-.305.712c-.196.188-.46.294-.737.294ZM7.68 14.97c-.277 0-.543-.105-.739-.293a.986.986 0 0 1-.307-.711c0-.267.11-.523.306-.712.195-.189.461-.295.738-.294.277 0 .542.107.738.296a.99.99 0 0 1 .304.712.987.987 0 0 1-.306.707 1.062 1.062 0 0 1-.734.295Zm3.298-12.96c-.278 0-.544-.107-.74-.297a.987.987 0 0 1-.302-.716.987.987 0 0 1 .314-.71c.199-.188.467-.291.744-.287.278.004.543.115.736.308a.986.986 0 0 1 .291.72.988.988 0 0 1-.314.696 1.064 1.064 0 0 1-.729.286Zm9.98 16.563c-.277 0-.543-.106-.738-.295a.987.987 0 0 1-.305-.711c0-.267.11-.522.306-.71a1.06 1.06 0 0 1 .738-.294c.277 0 .543.107.737.296a.984.984 0 0 1-.002 1.422 1.06 1.06 0 0 1-.737.292ZM1.067 14.55a.609.609 0 0 1-.565-.36.57.57 0 0 1 .131-.64.625.625 0 0 1 .664-.127.586.586 0 0 1 .374.544.597.597 0 0 1-.605.583Zm19.94 0a.608.608 0 0 1-.562-.363.57.57 0 0 1 .133-.639.625.625 0 0 1 .664-.125.586.586 0 0 1 .373.544.573.573 0 0 1-.178.413.617.617 0 0 1-.43.17Zm-6.71-11.135a.608.608 0 0 1-.562-.363.57.57 0 0 1 .133-.64.624.624 0 0 1 .664-.124.586.586 0 0 1 .373.544.573.573 0 0 1-.179.413.617.617 0 0 1-.43.17Zm-6.617 0a.609.609 0 0 1-.564-.36.57.57 0 0 1 .131-.64.624.624 0 0 1 .664-.127.586.586 0 0 1 .374.544c0 .322-.27.583-.605.583Z" fill="#BBCC2B"/><path d="M4.345 11.92a3.72 3.72 0 0 1-2.584-1.031A3.46 3.46 0 0 1 .69 8.398c0-.935.385-1.83 1.07-2.491a3.725 3.725 0 0 1 2.584-1.032c.97 0 1.899.371 2.584 1.032A3.459 3.459 0 0 1 8 8.397a3.46 3.46 0 0 1-1.07 2.49 3.73 3.73 0 0 1-2.584 1.034Z" fill="url(#a)"/><path d="M17.615 11.92a3.72 3.72 0 0 1-2.584-1.031 3.46 3.46 0 0 1-1.07-2.491c0-.935.384-1.83 1.07-2.491a3.725 3.725 0 0 1 2.584-1.032c.969 0 1.899.371 2.584 1.032a3.459 3.459 0 0 1 1.07 2.49 3.46 3.46 0 0 1-1.07 2.49 3.73 3.73 0 0 1-2.584 1.034Z" fill="url(#b)"/><path d="M10.978 23a3.723 3.723 0 0 1-2.583-1.034 3.46 3.46 0 0 1-1.068-2.491c0-.934.386-1.83 1.072-2.49a3.724 3.724 0 0 1 2.584-1.03c.969 0 1.898.371 2.583 1.031a3.46 3.46 0 0 1 1.07 2.491c0 .935-.386 1.83-1.072 2.491A3.729 3.729 0 0 1 10.978 23Z" fill="url(#c)"/></g></svg>