<svg width="156" height="221" viewBox="0 0 156 221" fill="none" xmlns="http://www.w3.org/2000/svg">
<g opacity="0.3" filter="url(#filter0_dii_583_16973)">
<path d="M4 16C4 10.3995 4 7.59921 5.08993 5.46009C6.04867 3.57847 7.57847 2.04867 9.46009 1.08993C11.5992 0 14.3995 0 20 0H136C141.601 0 144.401 0 146.54 1.08993C148.422 2.04867 149.951 3.57847 150.91 5.46009C152 7.59921 152 10.3995 152 16V197C152 202.601 152 205.401 150.91 207.54C149.951 209.422 148.422 210.951 146.54 211.91C144.401 213 141.601 213 136 213H20C14.3995 213 11.5992 213 9.46009 211.91C7.57847 210.951 6.04867 209.422 5.08993 207.54C4 205.401 4 202.601 4 197V16Z" fill="white" fill-opacity="0.5"/>
<path d="M4.5 16C4.5 13.1915 4.50039 11.1152 4.63458 9.47273C4.7683 7.83613 5.03237 6.67442 5.53544 5.68709C6.44624 3.89955 7.89955 2.44624 9.68709 1.53544C10.6744 1.03237 11.8361 0.768297 13.4727 0.634581C15.1152 0.500389 17.1915 0.5 20 0.5H136C138.809 0.5 140.885 0.500389 142.527 0.634581C144.164 0.768297 145.326 1.03237 146.313 1.53544C148.1 2.44623 149.554 3.89955 150.465 5.68709C150.968 6.67442 151.232 7.83613 151.365 9.47274C151.5 11.1152 151.5 13.1915 151.5 16V197C151.5 199.809 151.5 201.885 151.365 203.527C151.232 205.164 150.968 206.326 150.465 207.313C149.554 209.1 148.1 210.554 146.313 211.465C145.326 211.968 144.164 212.232 142.527 212.365C140.885 212.5 138.809 212.5 136 212.5H20C17.1915 212.5 15.1152 212.5 13.4727 212.365C11.8361 212.232 10.6744 211.968 9.68709 211.465C7.89955 210.554 6.44623 209.1 5.53544 207.313C5.03237 206.326 4.7683 205.164 4.63458 203.527C4.50039 201.885 4.5 199.809 4.5 197V16Z" stroke="white"/>
</g>
<defs>
<filter id="filter0_dii_583_16973" x="0" y="-1" width="156" height="222" filterUnits="userSpaceOnUse" color-interpolation-filters="sRGB">
<feFlood flood-opacity="0" result="BackgroundImageFix"/>
<feColorMatrix in="SourceAlpha" type="matrix" values="0 0 0 0 0 0 0 0 0 0 0 0 0 0 0 0 0 0 127 0" result="hardAlpha"/>
<feMorphology radius="4" operator="erode" in="SourceAlpha" result="effect1_dropShadow_583_16973"/>
<feOffset dy="4"/>
<feGaussianBlur stdDeviation="4"/>
<feColorMatrix type="matrix" values="0 0 0 0 0 0 0 0 0 0 0 0 0 0 0 0 0 0 0.25 0"/>
<feBlend mode="multiply" in2="BackgroundImageFix" result="effect1_dropShadow_583_16973"/>
<feBlend mode="normal" in="SourceGraphic" in2="effect1_dropShadow_583_16973" result="shape"/>
<feColorMatrix in="SourceAlpha" type="matrix" values="0 0 0 0 0 0 0 0 0 0 0 0 0 0 0 0 0 0 127 0" result="hardAlpha"/>
<feOffset dy="2"/>
<feComposite in2="hardAlpha" operator="arithmetic" k2="-1" k3="1"/>
<feColorMatrix type="matrix" values="0 0 0 0 1 0 0 0 0 1 0 0 0 0 1 0 0 0 0.25 0"/>
<feBlend mode="normal" in2="shape" result="effect2_innerShadow_583_16973"/>
<feColorMatrix in="SourceAlpha" type="matrix" values="0 0 0 0 0 0 0 0 0 0 0 0 0 0 0 0 0 0 127 0" result="hardAlpha"/>
<feOffset dy="-1"/>
<feGaussianBlur stdDeviation="0.5"/>
<feComposite in2="hardAlpha" operator="arithmetic" k2="-1" k3="1"/>
<feColorMatrix type="matrix" values="0 0 0 0 0 0 0 0 0 0 0 0 0 0 0 0 0 0 0.04 0"/>
<feBlend mode="multiply" in2="effect2_innerShadow_583_16973" result="effect3_innerShadow_583_16973"/>
</filter>
</defs>
</svg>
