<svg width="18" height="14" viewBox="0 0 18 14" fill="none" xmlns="http://www.w3.org/2000/svg">
<path fill-rule="evenodd" clip-rule="evenodd" d="M3.1665 1.99967H14.8332C15.155 1.99967 15.4343 2.18215 15.5731 2.44929L9.4621 6.52329C9.18218 6.7099 8.81751 6.7099 8.5376 6.52329L2.42658 2.44928C2.5654 2.18214 2.84464 1.99967 3.1665 1.99967ZM2.33317 4.39009V11.1663C2.33317 11.6266 2.70627 11.9997 3.1665 11.9997H14.8332C15.2934 11.9997 15.6665 11.6266 15.6665 11.1663V4.3901L10.3866 7.91004C9.54685 8.46987 8.45285 8.46987 7.6131 7.91004L2.33317 4.39009ZM0.666504 2.83301C0.666504 1.4523 1.78579 0.333008 3.1665 0.333008H14.8332C16.2139 0.333008 17.3332 1.4523 17.3332 2.83301V11.1663C17.3332 12.5471 16.2139 13.6663 14.8332 13.6663H3.1665C1.78579 13.6663 0.666504 12.5471 0.666504 11.1663V2.83301Z" fill="#6F767E"/>
</svg>
