<svg width="22" height="22" xmlns="http://www.w3.org/2000/svg"><path d="M9.279 12.076V3.473c-7.312.542-10.673 9.484-5.456 14.703 5.22 5.217 14.162 1.857 14.704-5.456H9.923a.644.644 0 0 1-.644-.644Zm1.291-9.271v8.625h8.625c.359 0 .647.288.647.646 0 8.806-10.696 13.245-16.93 7.012-6.233-6.234-1.794-16.93 7.011-16.93.36 0 .647.288.647.647Zm2.158 6.467h7.957a8.63 8.63 0 0 0-7.957-7.957v7.957Zm8.625 1.29h-9.271a.644.644 0 0 1-.645-.643V.647c0-.359.288-.647.645-.647C17.558 0 22 4.442 22 9.918a.644.644 0 0 1-.647.645Z" fill="#6F767E"/></svg>