<svg width="22" height="23" xmlns="http://www.w3.org/2000/svg"><g fill="#6F767E"><path d="M16.258 23c-3.172 0-5.763-2.658-5.763-5.912 0-3.255 2.591-5.913 5.763-5.913 3.173 0 5.742 2.658 5.742 5.913C22 20.342 19.43 23 16.258 23Zm0-10.565c-2.524 0-4.557 2.086-4.557 4.653 0 2.566 2.033 4.675 4.557 4.675 2.525 0 4.558-2.086 4.558-4.675 0-2.59-2.055-4.653-4.558-4.653Z"/><path d="M18.377 17.82h-2.9v-3.04a.603.603 0 1 1 1.206 0v1.826h1.694a.607.607 0 1 1 0 1.215Z"/><path d="M9.11 21.35H4.753C2.676 21.35 1 19.631 1 17.5V4.85C1 2.742 2.676 1 4.753 1h9.405c2.078 0 3.754 1.742 3.754 3.85v4.033h-1.207V4.85c0-1.444-1.161-2.635-2.569-2.635H4.753c-1.407 0-2.569 1.191-2.569 2.635V17.5c0 1.444 1.162 2.635 2.57 2.635H9.11v1.215Z" stroke="#6F767E" stroke-width=".7"/><path d="M5.707 6.523h7.475a.619.619 0 1 1 0 1.237H5.707a.619.619 0 0 1 0-1.237Zm0 4.033h5.442a.619.619 0 0 1 0 1.238H5.707a.619.619 0 1 1 0-1.238Zm0 4.034h3.208a.619.619 0 1 1 0 1.237H5.707a.619.619 0 0 1 0-1.237Z"/></g></svg>