<svg width="17" height="21" xmlns="http://www.w3.org/2000/svg"><g fill="none" fill-rule="evenodd"><path d="M14.4 1.983H2.009v17.015h12.39V17.5c0-.644.538-1.167 1.2-1.167.664 0 1.2.523 1.2 1.167v1.4c0 1.16-.966 2.1-2.16 2.1H2.16C.967 21 0 20.06 0 18.9V2.1C0 .94.967 0 2.16 0h12.48c1.193 0 2.16.94 2.16 2.1v1.4c0 .644-.537 1.167-1.2 1.167-.663 0-1.2-.523-1.2-1.167V1.983Z" fill="#1A1D1F" fill-rule="nonzero"/><path fill="#1A1D1F" d="m1 1 15.8 1v17L1 20z"/><path d="m13.09 11.383-5.274-.019c-.452 0-.817-.389-.816-.866.001-.477.368-.863.82-.862l5.288.019v-.02L12.079 8.55a.944.944 0 0 1 0-1.283.827.827 0 0 1 1.215 0l2.454 2.592a.944.944 0 0 1 0 1.284l-2.454 2.592a.827.827 0 0 1-1.215 0 .944.944 0 0 1 0-1.283l1.011-1.068Z" fill="#FFF" fill-rule="nonzero"/></g></svg>