<svg width="28" height="29" xmlns="http://www.w3.org/2000/svg"><g fill="#FFF"><path d="M23.333 4.167V1.902a1.833 1.833 0 0 0-.467-1.261A1.94 1.94 0 0 0 21.65.009a1.904 1.904 0 0 0-1.44.464c-.39.345-.612.835-.609 1.348v2.264h-3.733V1.898c.01-.462-.158-.91-.469-1.259a1.94 1.94 0 0 0-1.216-.63 1.903 1.903 0 0 0-1.44.464c-.39.345-.611.835-.608 1.347v2.265H8.4V1.898c.01-.462-.157-.91-.469-1.259a1.94 1.94 0 0 0-1.216-.63 1.903 1.903 0 0 0-1.439.463c-.39.346-.612.836-.61 1.348v2.347a5.64 5.64 0 0 0-3.341 1.849A5.34 5.34 0 0 0 0 9.52v14.042c0 1.442.59 2.824 1.64 3.844a5.686 5.686 0 0 0 3.96 1.592h3.267c.667 0 1.283-.345 1.616-.906a1.766 1.766 0 0 0 0-1.812 1.878 1.878 0 0 0-1.616-.906H5.6c-.495 0-.97-.19-1.32-.53a1.787 1.787 0 0 1-.547-1.282V9.521c0-.48.197-.941.547-1.28.35-.34.825-.532 1.32-.532h16.8c.495 0 .97.191 1.32.531.35.34.547.8.547 1.281v3.171c0 .647.355 1.245.933 1.57a1.92 1.92 0 0 0 1.867 0c.577-.325.933-.923.933-1.57v-3.17a5.34 5.34 0 0 0-1.325-3.506 5.64 5.64 0 0 0-3.342-1.85Z"/><path d="M23.245 16.837a1.908 1.908 0 0 0-1.807-.457 1.84 1.84 0 0 0-1.312 1.29 1.78 1.78 0 0 0 .496 1.749l1.494 1.426h-7.649c-.667 0-1.283.346-1.617.907a1.766 1.766 0 0 0 0 1.811c.334.56.95.906 1.617.906h7.649l-1.494 1.427a1.786 1.786 0 0 0-.556 1.278c-.003.481.19.944.538 1.286.348.342.821.537 1.317.54.495.003.971-.184 1.324-.522l3.822-3.678a2.97 2.97 0 0 0 .922-2.143 2.97 2.97 0 0 0-.922-2.142l-3.822-3.678Z" opacity=".5"/></g></svg>