<svg width="30" height="29" xmlns="http://www.w3.org/2000/svg"><g fill="#FFF"><path d="M5.212 29h19.334a4.833 4.833 0 0 0 4.833-4.833V7.25a4.834 4.834 0 0 0-4.833-4.834h-1.209V1.208a1.208 1.208 0 1 0-2.416 0v1.208h-4.834V1.208a1.208 1.208 0 1 0-2.416 0v1.208H8.837V1.208a1.208 1.208 0 1 0-2.416 0v1.208H5.212A4.833 4.833 0 0 0 .38 7.25v16.917A4.833 4.833 0 0 0 5.212 29Zm19.334-2.416H5.212a2.415 2.415 0 0 1-2.416-2.417V12.083h24.167v12.084a2.415 2.415 0 0 1-2.417 2.417ZM5.212 4.834h1.209V6.04a1.208 1.208 0 1 0 2.417 0V4.834h4.833v1.209a1.208 1.208 0 1 0 2.417 0v-1.21h4.833v1.209a1.208 1.208 0 0 0 2.417 0V4.833h1.208a2.417 2.417 0 0 1 2.417 2.417v2.417H2.796V7.25a2.416 2.416 0 0 1 2.416-2.417Z"/><path d="m17.652 16.064-3.981 3.976-1.565-1.56a1.209 1.209 0 0 0-1.704 1.705l2.416 2.416a1.209 1.209 0 0 0 1.704 0l4.834-4.833a1.209 1.209 0 0 0-1.704-1.704Z" opacity=".5"/></g></svg>