<svg width="32" height="29" xmlns="http://www.w3.org/2000/svg"><g fill="#FFF"><path d="M24.94 21.289c.928-1.332 2.995.052 2.068 1.384C24.246 26.633 19.686 29 14.792 29 6.622 29 0 22.508 0 14.5S6.623 0 14.792 0c6.788 0 12.705 4.54 14.345 10.974l.51-.859c.831-1.394 2.997-.155 2.167 1.24l-2.329 3.904a1.268 1.268 0 0 1-1.898.309l-3.385-2.872c-1.242-1.053.394-2.908 1.637-1.854l.878.745C25.361 6.232 20.44 2.46 14.792 2.46 8.008 2.46 2.51 7.85 2.51 14.5c0 6.65 5.499 12.041 12.283 12.041 4.074 0 7.85-1.955 10.15-5.251l-.001-.001Z"/><path d="M18.224 8c.408 0 .739.364.739.813 0 .449-.33.813-.739.813l-1.604-.002c.254.428.421.934.496 1.514h1.145c.408 0 .739.364.739.814 0 .448-.33.813-.739.813h-1.16a4.187 4.187 0 0 1-1.145 2.26 4.23 4.23 0 0 1-2.496 1.138l3.782 4.471c.2.237.252.58.136.877a.754.754 0 0 1-.567.48l-.099.007-.09-.005a.72.72 0 0 1-.444-.253l-4.728-5.593a1.044 1.044 0 0 1-.14-1.082c.16-.356.506-.564.864-.52.986.197 2-.068 2.8-.732.292-.286.507-.649.628-1.048h-3.79c-.407 0-.738-.365-.738-.813 0-.45.33-.813.739-.813h3.837c-.16-.803-.702-1.513-2.353-1.513H11.74c-.408 0-.739-.364-.739-.813 0-.449.33-.813.739-.813h6.485Z" opacity=".5"/></g></svg>