<svg width="30" height="32" xmlns="http://www.w3.org/2000/svg"><path d="M17.788 0c-3.124 0-6.12 1.185-8.33 3.293-2.21 2.109-3.45 4.968-3.45 7.95 0 2.983 1.24 5.842 3.45 7.951 2.209 2.108 5.205 3.293 8.33 3.293s6.12-1.185 8.33-3.293 3.45-4.968 3.45-7.95c0-2.983-1.24-5.842-3.45-7.951C23.91 1.185 20.913 0 17.788 0Zm0 20.757c-2.644 0-5.18-1.003-7.048-2.787-1.87-1.784-2.92-4.204-2.92-6.726 0-2.523 1.05-4.944 2.92-6.727 1.869-1.784 4.405-2.787 7.048-2.787s5.18 1.003 7.048 2.787c1.87 1.784 2.92 4.204 2.92 6.727 0 2.522-1.05 4.943-2.92 6.726-1.87 1.784-4.405 2.787-7.048 2.787Zm6.343 3.027h-8.609c-.5 0-.906.387-.906.865 0 .477.406.865.906.865h8.61c.96 0 1.883.364 2.562 1.013a3.38 3.38 0 0 1 1.062 2.446v.432c0 .23-.096.45-.265.612a.928.928 0 0 1-.641.253H13.71c-.5 0-.906.388-.906.865 0 .478.406.865.906.865h13.14c.721 0 1.412-.273 1.922-.76s.796-1.146.796-1.835v-.432a5.073 5.073 0 0 0-1.592-3.67 5.573 5.573 0 0 0-3.845-1.52ZM13.18 24.986a1.459 1.459 0 0 0-.906-.9l-2.356-.865-1.853-1.989a1.564 1.564 0 0 0-1.151-.497c-.44 0-.86.181-1.151.497l-1.853 1.99-2.356.864a1.459 1.459 0 0 0-.906.9 1.33 1.33 0 0 0 .154 1.202l1.58 2.43v1.955c.001.455.232.883.622 1.146a1.576 1.576 0 0 0 1.359.212l2.55-.744 2.52.744c.463.137.966.058 1.36-.212a1.39 1.39 0 0 0 .652-1.146v-1.955l1.572-2.417a1.34 1.34 0 0 0 .163-1.215Zm-3.335 2.806c-.136.205-.21.441-.213.684v1.7l-2.184-.64a1.893 1.893 0 0 0-1.069 0l-2.184.64V28.48c0-.24-.072-.474-.208-.674l-1.45-2.223 2.111-.761c.21-.074.396-.196.544-.355l1.722-1.85 1.717 1.846c.148.16.334.284.544.359l2.116.76-1.446 2.21Z" fill="#FFF"/></svg>