<svg width="20" height="24" fill="none" xmlns="http://www.w3.org/2000/svg"><path d="M18.365 16.492c.324.1.614.29.853.545.375.391.606.946.606 1.546 0 .6-.23 1.145-.606 1.545-.375.4-.887.646-1.45.646h-4.48a3.346 3.346 0 0 1-.836 1.609c-.563.6-1.34.973-2.193.973a3.023 3.023 0 0 1-2.201-.973 3.412 3.412 0 0 1-.828-1.61H2.75a1.957 1.957 0 0 1-1.45-.645 2.252 2.252 0 0 1-.606-1.545c0-.6.23-1.155.606-1.546.23-.255.53-.445.853-.545l.973-6.373c.324-2.1 1.169-4.037 2.457-5.41A6.695 6.695 0 0 1 7.17 3.446 3.41 3.41 0 0 1 8.058 1.5a3.023 3.023 0 0 1 2.2-.973c.854 0 1.63.373 2.194.973.477.51.802 1.191.887 1.946a6.372 6.372 0 0 1 1.587 1.263c1.297 1.373 2.141 3.31 2.466 5.41l.973 6.373Zm-11.007-6.5c-.06.4-.41.663-.785.6-.367-.064-.623-.437-.563-.837.17-1.118.631-2.164 1.331-2.9.657-.71 1.536-1.146 2.577-1.146.375 0 .682.328.682.728 0 .4-.307.727-.682.727-.649 0-1.195.272-1.613.718-.495.527-.819 1.282-.947 2.109Zm1.468-7.2c.452-.11.93-.164 1.433-.164.495 0 .981.054 1.434.163a1.96 1.96 0 0 0-.205-.263 1.676 1.676 0 0 0-2.457 0 1.944 1.944 0 0 0-.205.263Zm3.029 17.981H8.664c.085.218.213.419.366.582a1.7 1.7 0 0 0 1.229.537c.478 0 .913-.21 1.229-.537a1.83 1.83 0 0 0 .366-.582Zm6.399-2.709a.691.691 0 0 0-.487-.209c-.332 0-.622-.255-.673-.618l-1.05-6.882c-.281-1.809-.998-3.454-2.082-4.618-.955-1.018-2.21-1.645-3.703-1.645-1.493 0-2.747.627-3.702 1.645-1.084 1.164-1.81 2.81-2.082 4.618l-1.041 6.828c-.034.372-.324.672-.683.672a.691.691 0 0 0-.486.21.787.787 0 0 0 0 1.036.693.693 0 0 0 .486.209h15.017a.691.691 0 0 0 .486-.21.787.787 0 0 0 0-1.035Z" fill="#6F767E"/></svg>