<svg width="204" height="58" viewBox="0 0 204 58" fill="none" xmlns="http://www.w3.org/2000/svg">
<g opacity="0.3" filter="url(#filter0_dii_583_17000)">
<path d="M4 16C4 10.3995 4 7.59921 5.08993 5.46009C6.04867 3.57847 7.57847 2.04867 9.46009 1.08993C11.5992 0 14.3995 0 20 0H184C189.601 0 192.401 0 194.54 1.08993C196.422 2.04867 197.951 3.57847 198.91 5.46009C200 7.59921 200 10.3995 200 16V34C200 39.6005 200 42.4008 198.91 44.5399C197.951 46.4215 196.422 47.9513 194.54 48.9101C192.401 50 189.601 50 184 50H20C14.3995 50 11.5992 50 9.46009 48.9101C7.57847 47.9513 6.04867 46.4215 5.08993 44.5399C4 42.4008 4 39.6005 4 34V16Z" fill="white" fill-opacity="0.5"/>
<path d="M4.5 16C4.5 13.1915 4.50039 11.1152 4.63458 9.47274C4.7683 7.83613 5.03237 6.67441 5.53544 5.68709C6.44624 3.89955 7.89955 2.44624 9.68709 1.53544C10.6744 1.03237 11.8361 0.768297 13.4727 0.634581C15.1152 0.500389 17.1915 0.5 20 0.5H184C186.809 0.5 188.885 0.500389 190.527 0.634581C192.164 0.768297 193.326 1.03237 194.313 1.53544C196.1 2.44623 197.554 3.89955 198.465 5.68709C198.968 6.67442 199.232 7.83613 199.365 9.47274C199.5 11.1152 199.5 13.1915 199.5 16V34C199.5 36.8085 199.5 38.8848 199.365 40.5273C199.232 42.1639 198.968 43.3256 198.465 44.3129C197.554 46.1004 196.1 47.5538 194.313 48.4646C193.326 48.9676 192.164 49.2317 190.527 49.3654C188.885 49.4996 186.809 49.5 184 49.5H20C17.1915 49.5 15.1152 49.4996 13.4727 49.3654C11.8361 49.2317 10.6744 48.9676 9.68709 48.4646C7.89955 47.5538 6.44624 46.1004 5.53544 44.3129C5.03237 43.3256 4.7683 42.1639 4.63458 40.5273C4.50039 38.8848 4.5 36.8085 4.5 34V16Z" stroke="white"/>
</g>
<defs>
<filter id="filter0_dii_583_17000" x="0" y="-1" width="204" height="59" filterUnits="userSpaceOnUse" color-interpolation-filters="sRGB">
<feFlood flood-opacity="0" result="BackgroundImageFix"/>
<feColorMatrix in="SourceAlpha" type="matrix" values="0 0 0 0 0 0 0 0 0 0 0 0 0 0 0 0 0 0 127 0" result="hardAlpha"/>
<feMorphology radius="4" operator="erode" in="SourceAlpha" result="effect1_dropShadow_583_17000"/>
<feOffset dy="4"/>
<feGaussianBlur stdDeviation="4"/>
<feColorMatrix type="matrix" values="0 0 0 0 0 0 0 0 0 0 0 0 0 0 0 0 0 0 0.25 0"/>
<feBlend mode="multiply" in2="BackgroundImageFix" result="effect1_dropShadow_583_17000"/>
<feBlend mode="normal" in="SourceGraphic" in2="effect1_dropShadow_583_17000" result="shape"/>
<feColorMatrix in="SourceAlpha" type="matrix" values="0 0 0 0 0 0 0 0 0 0 0 0 0 0 0 0 0 0 127 0" result="hardAlpha"/>
<feOffset dy="2"/>
<feComposite in2="hardAlpha" operator="arithmetic" k2="-1" k3="1"/>
<feColorMatrix type="matrix" values="0 0 0 0 1 0 0 0 0 1 0 0 0 0 1 0 0 0 0.25 0"/>
<feBlend mode="normal" in2="shape" result="effect2_innerShadow_583_17000"/>
<feColorMatrix in="SourceAlpha" type="matrix" values="0 0 0 0 0 0 0 0 0 0 0 0 0 0 0 0 0 0 127 0" result="hardAlpha"/>
<feOffset dy="-1"/>
<feGaussianBlur stdDeviation="0.5"/>
<feComposite in2="hardAlpha" operator="arithmetic" k2="-1" k3="1"/>
<feColorMatrix type="matrix" values="0 0 0 0 0 0 0 0 0 0 0 0 0 0 0 0 0 0 0.04 0"/>
<feBlend mode="multiply" in2="effect2_innerShadow_583_17000" result="effect3_innerShadow_583_17000"/>
</filter>
</defs>
</svg>
