<svg width="95" height="181" viewBox="0 0 95 181" fill="none" xmlns="http://www.w3.org/2000/svg">
<g opacity="0.3" filter="url(#filter0_dii_583_16988)">
<path d="M4 16C4 10.3995 4 7.59921 5.08993 5.46009C6.04867 3.57847 7.57847 2.04867 9.46009 1.08993C11.5992 0 14.3995 0 20 0H75C80.6005 0 83.4008 0 85.5399 1.08993C87.4215 2.04867 88.9513 3.57847 89.9101 5.46009C91 7.59921 91 10.3995 91 16V157C91 162.601 91 165.401 89.9101 167.54C88.9513 169.422 87.4215 170.951 85.5399 171.91C83.4008 173 80.6005 173 75 173H20C14.3995 173 11.5992 173 9.46009 171.91C7.57847 170.951 6.04867 169.422 5.08993 167.54C4 165.401 4 162.601 4 157V16Z" fill="white" fill-opacity="0.5"/>
<path d="M4.5 16C4.5 13.1915 4.50039 11.1152 4.63458 9.47274C4.7683 7.83613 5.03237 6.67441 5.53544 5.68709C6.44624 3.89955 7.89955 2.44624 9.68709 1.53544C10.6744 1.03237 11.8361 0.768297 13.4727 0.634581C15.1152 0.500389 17.1915 0.5 20 0.5H75C77.8085 0.5 79.8848 0.500389 81.5273 0.634581C83.1639 0.768297 84.3256 1.03237 85.3129 1.53544C87.1004 2.44624 88.5538 3.89955 89.4646 5.68709C89.9676 6.67442 90.2317 7.83613 90.3654 9.47274C90.4996 11.1152 90.5 13.1915 90.5 16V157C90.5 159.809 90.4996 161.885 90.3654 163.527C90.2317 165.164 89.9676 166.326 89.4646 167.313C88.5538 169.1 87.1004 170.554 85.3129 171.465C84.3256 171.968 83.1639 172.232 81.5273 172.365C79.8848 172.5 77.8085 172.5 75 172.5H20C17.1915 172.5 15.1152 172.5 13.4727 172.365C11.8361 172.232 10.6744 171.968 9.68709 171.465C7.89955 170.554 6.44623 169.1 5.53544 167.313C5.03237 166.326 4.7683 165.164 4.63458 163.527C4.50039 161.885 4.5 159.809 4.5 157V16Z" stroke="white"/>
</g>
<defs>
<filter id="filter0_dii_583_16988" x="0" y="-1" width="95" height="182" filterUnits="userSpaceOnUse" color-interpolation-filters="sRGB">
<feFlood flood-opacity="0" result="BackgroundImageFix"/>
<feColorMatrix in="SourceAlpha" type="matrix" values="0 0 0 0 0 0 0 0 0 0 0 0 0 0 0 0 0 0 127 0" result="hardAlpha"/>
<feMorphology radius="4" operator="erode" in="SourceAlpha" result="effect1_dropShadow_583_16988"/>
<feOffset dy="4"/>
<feGaussianBlur stdDeviation="4"/>
<feColorMatrix type="matrix" values="0 0 0 0 0 0 0 0 0 0 0 0 0 0 0 0 0 0 0.25 0"/>
<feBlend mode="multiply" in2="BackgroundImageFix" result="effect1_dropShadow_583_16988"/>
<feBlend mode="normal" in="SourceGraphic" in2="effect1_dropShadow_583_16988" result="shape"/>
<feColorMatrix in="SourceAlpha" type="matrix" values="0 0 0 0 0 0 0 0 0 0 0 0 0 0 0 0 0 0 127 0" result="hardAlpha"/>
<feOffset dy="2"/>
<feComposite in2="hardAlpha" operator="arithmetic" k2="-1" k3="1"/>
<feColorMatrix type="matrix" values="0 0 0 0 1 0 0 0 0 1 0 0 0 0 1 0 0 0 0.25 0"/>
<feBlend mode="normal" in2="shape" result="effect2_innerShadow_583_16988"/>
<feColorMatrix in="SourceAlpha" type="matrix" values="0 0 0 0 0 0 0 0 0 0 0 0 0 0 0 0 0 0 127 0" result="hardAlpha"/>
<feOffset dy="-1"/>
<feGaussianBlur stdDeviation="0.5"/>
<feComposite in2="hardAlpha" operator="arithmetic" k2="-1" k3="1"/>
<feColorMatrix type="matrix" values="0 0 0 0 0 0 0 0 0 0 0 0 0 0 0 0 0 0 0.04 0"/>
<feBlend mode="multiply" in2="effect2_innerShadow_583_16988" result="effect3_innerShadow_583_16988"/>
</filter>
</defs>
</svg>
