<svg width="24" height="24" fill="none" xmlns="http://www.w3.org/2000/svg"><path d="M23.25 4.8H13.5V.802a.82.82 0 0 0-.271-.616.704.704 0 0 0-.617-.17l-12 2.4c-.356.071-.612.4-.612.786v17.6c0 .383.256.714.612.785l12 2.4a.718.718 0 0 0 .617-.17.821.821 0 0 0 .27-.616v-4h9.751c.414 0 .75-.358.75-.8V5.6c0-.44-.336-.8-.75-.8Z" fill="#0071C5"/><path d="M21.065 6.4H13.5v1.817l2.957 2.006L21.065 6.4Z" fill="#fff"/><path d="M16.96 11.832a.711.711 0 0 1-.863.043L13.5 10.113V17.6h9V7.235l-5.54 4.597ZM6.75 8.001c-2.067 0-3.75 2.154-3.75 4.8s1.683 4.8 3.75 4.8 3.75-2.154 3.75-4.8S8.817 8 6.75 8Zm0 8c-1.24 0-2.25-1.435-2.25-3.2 0-1.765 1.01-3.2 2.25-3.2S9 11.036 9 12.801C9 14.566 7.99 16 6.75 16Z" fill="#fff"/></svg>