<svg width="20" height="24" fill="none" xmlns="http://www.w3.org/2000/svg"><path d="M16.913 9.003h-.765V6.126C16.148 2.69 13.607 0 9.973 0s-6.12 2.744-6.12 6.126v2.85h-.766A3.064 3.064 0 0 0 0 11.987v9.004c0 1.651 1.366 2.983 3.087 3.01h13.826A3.064 3.064 0 0 0 20 20.99v-9.004c0-1.651-1.393-2.983-3.087-2.983Zm-11.53 0V6.126c0-2.557 1.803-4.634 4.59-4.634 2.76 0 4.644 2.024 4.644 4.634v2.85H5.382v.027Zm13.06 11.987c0 .826-.684 1.492-1.53 1.492H3.088c-.847 0-1.53-.666-1.53-1.492v-9.003c0-.826.683-1.492 1.53-1.492h13.825c.846 0 1.53.666 1.53 1.492v9.003Zm-6.913-5.993c0 .559-.3 1.038-.765 1.305h-.027.027v2.45a.754.754 0 0 1-.765.746.754.754 0 0 1-.765-.746v-2.45h.027-.027a1.493 1.493 0 0 1-.765-1.305c0-.826.683-1.492 1.53-1.492.847-.027 1.53.64 1.53 1.492Z" fill="#6F767E"/></svg>