<svg width="21" height="21" fill="none" xmlns="http://www.w3.org/2000/svg"><path fill-rule="evenodd" clip-rule="evenodd" d="M10.13 10.672a2 2 0 1 0 0-4 2 2 0 0 0 0 4Zm0 2a4 4 0 1 0 0-8 4 4 0 0 0 0 8Z" fill="#6F767E"/><path fill-rule="evenodd" clip-rule="evenodd" d="M16.689 18.22a9.977 9.977 0 0 0 3.44-7.548c0-5.523-4.476-10-10-10-5.522 0-10 4.477-10 10a9.977 9.977 0 0 0 3.442 7.549 9.962 9.962 0 0 0 6.559 2.45 9.96 9.96 0 0 0 6.559-2.45Zm-6.301.448a8.181 8.181 0 0 1-.258.004h-.026a8.002 8.002 0 0 1-3.938-1.05 4.994 4.994 0 0 1 3.964-1.95c1.612 0 3.048.763 3.963 1.95a7.956 7.956 0 0 1-3.705 1.046Zm5.304-2.246a6.989 6.989 0 0 0-5.562-2.75 6.989 6.989 0 0 0-5.563 2.75 8 8 0 1 1 11.125 0Z" fill="#6F767E"/></svg>