<svg width="112" height="112" viewBox="0 0 112 112" fill="none" xmlns="http://www.w3.org/2000/svg">
<circle cx="56" cy="56" r="56" fill="url(#paint0_linear_583_14513)"/>
<circle opacity="0.1521" cx="56" cy="56" r="47.5" stroke="white"/>
<path d="M55.9996 39.0003C51.4908 39.0003 47.278 40.7003 44.1736 43.8046V41.9568C44.1736 41.1438 43.5084 40.4785 42.6954 40.4785C41.8821 40.4785 41.2171 41.1438 41.2171 41.9568V47.8698C41.2171 48.6828 41.8823 49.3481 42.6954 49.3481H48.6084C49.4214 49.3481 50.0867 48.6828 50.0867 47.8698C50.0867 47.0568 49.4214 46.3915 48.6084 46.3915H45.7257C48.3864 43.5828 52.0084 41.9568 55.9998 41.9568C63.7603 41.9568 70.043 48.2395 70.043 56C70.043 63.7605 63.7603 70.0432 55.9998 70.0432C48.2393 70.0432 41.9565 63.7605 41.9565 56C41.9565 55.187 41.2913 54.5217 40.4783 54.5217C39.6652 54.5217 39 55.187 39 56C39 65.387 46.613 73 56 73C65.387 73 73 65.387 73 56C73 46.613 65.387 39 56 39L55.9996 39.0003Z" fill="white"/>
<path fill-rule="evenodd" clip-rule="evenodd" d="M57.8442 50.8253C58.2093 51.3364 58.4831 51.9022 58.6474 52.5227H60.5273L59.7973 54.7129L58.7569 54.7131C58.4466 56.9763 56.8769 58.7468 54.6502 59.0571L59.3044 65.6826H56.6396L52.0035 59.1118V56.9216H53.8288C55.1611 56.9216 56.2929 55.9908 56.5666 54.7314L51.5107 54.7313L52.2408 52.541H56.4022C55.9825 51.5371 54.9786 50.8437 53.8287 50.8437L51.5107 50.8435L52.2408 48.6533H60.5272L59.7972 50.8435H57.8443L57.8442 50.8253Z" fill="white" fill-opacity="0.5"/>
<defs>
<linearGradient id="paint0_linear_583_14513" x1="24" y1="20" x2="70" y2="112" gradientUnits="userSpaceOnUse">
<stop stop-color="#FFB78F"/>
<stop offset="1" stop-color="#E26C47"/>
</linearGradient>
</defs>
</svg>
