<svg width="112" height="112" fill="none" xmlns="http://www.w3.org/2000/svg"><circle cx="56" cy="56" r="56" fill="url(#a)"/><circle opacity=".152" cx="56" cy="56" r="47.5" stroke="#fff"/><path d="M56 39c-4.51 0-8.722 1.7-11.826 4.805v-1.848c0-.813-.666-1.479-1.479-1.479-.813 0-1.478.666-1.478 1.479v5.913c0 .813.665 1.478 1.478 1.478h5.913c.813 0 1.479-.665 1.479-1.478s-.666-1.478-1.479-1.478h-2.882c2.66-2.81 6.282-4.435 10.274-4.435 7.76 0 14.043 6.282 14.043 14.043 0 7.76-6.283 14.043-14.043 14.043-7.76 0-14.044-6.283-14.044-14.043 0-.813-.665-1.478-1.478-1.478S39 55.187 39 56c0 9.387 7.613 17 17 17s17-7.613 17-17-7.613-17-17-17Z" fill="#fff"/><path fill-rule="evenodd" clip-rule="evenodd" d="M57.844 50.825c.365.511.64 1.077.803 1.698h1.88l-.73 2.19h-1.04c-.31 2.263-1.88 4.034-4.107 4.344l4.654 6.626H56.64l-4.636-6.571v-2.19h1.825a2.8 2.8 0 0 0 2.738-2.19H51.51l.73-2.191h4.161a2.787 2.787 0 0 0-2.573-1.697H51.51l.73-2.19h8.286l-.73 2.19h-1.953v-.019Z" fill="#fff" fill-opacity=".5"/><defs><linearGradient id="a" x1="24" y1="20" x2="70" y2="112" gradientUnits="userSpaceOnUse"><stop stop-color="#FFB78F"/><stop offset="1" stop-color="#E26C47"/></linearGradient></defs></svg>