<svg width="41" height="32" fill="none" xmlns="http://www.w3.org/2000/svg"><path d="M1.366 0C.612 0 0 .597 0 1.333v5.333C0 7.403.612 8 1.366 8c.754 0 1.367-.598 1.367-1.334v-4h4.1c.755 0 1.366-.597 1.366-1.333C8.2.598 7.587 0 6.833 0H1.366Zm32.8 0C33.413 0 32.8.597 32.8 1.333s.612 1.333 1.367 1.333h4.1v4c0 .737.612 1.334 1.366 1.334.754 0 1.366-.598 1.366-1.334V1.333C41 .597 40.387 0 39.633 0h-5.467Zm-32.8 24C.613 24 0 24.598 0 25.334v5.333C0 31.403.612 32 1.367 32h5.466c.755 0 1.367-.597 1.367-1.333s-.613-1.333-1.367-1.333h-4.1v-4c0-.737-.612-1.334-1.366-1.334Zm38.267 0c-.754 0-1.366.598-1.366 1.334v4h-4.1c-.755 0-1.366.597-1.366 1.333 0 .735.612 1.333 1.366 1.333h5.466c.755 0 1.367-.597 1.367-1.333v-5.333c0-.737-.612-1.334-1.367-1.334Z" fill="#fff"/><path d="M5.466 5.333v21.333H8.2V5.333H5.466Zm5.468 0V18h2.733V5.333h-2.733Zm5.466 0v4.333h2.733V5.333H16.4Zm5.466 0v21.333H24.6V5.333h-2.734Zm5.468 0V18h2.733V5.333h-2.733Zm5.466 0v21.333h2.733V5.333H32.8Zm-16.4 7v14.333h2.733V12.333H16.4Zm-5.466 8.334v6h2.733v-6h-2.733Zm16.4 0v6h2.733v-6h-2.733Z" opacity=".5" fill-rule="evenodd" clip-rule="evenodd" fill="#fff"/></svg>