<svg width="22" height="21" viewBox="0 0 22 21" fill="none" xmlns="http://www.w3.org/2000/svg">
<path fill-rule="evenodd" clip-rule="evenodd" d="M7.64849 0.937683C7.63574 0.937438 7.62301 0.93744 7.61033 0.937683H5.68258C4.44534 0.937683 3.335 1.69723 2.88656 2.85034L1.09862 7.44791C0.664233 8.56491 1.14148 9.78991 2.13037 10.3498V17.9377C2.13037 19.5945 3.47352 20.9377 5.13037 20.9377H17.1304C18.7872 20.9377 20.1304 19.5945 20.1304 17.9377V10.3498C21.1193 9.78992 21.5965 8.56492 21.1621 7.44791L19.3742 2.85034C18.9258 1.69723 17.8154 0.937683 16.5782 0.937683H14.6505C14.6378 0.93744 14.6251 0.937438 14.6123 0.937683H7.64849ZM18.1304 10.6761C17.6818 10.6236 17.2422 10.4936 16.8319 10.2885L16.1308 9.93791L16.1298 9.93791L15.4873 10.1949C14.2953 10.6717 12.9655 10.6717 11.7734 10.1949L11.1304 9.93768L10.4873 10.1949C9.29527 10.6717 7.96548 10.6717 6.77342 10.1949L6.13095 9.93791L6.12992 9.93791L5.42881 10.2885C5.01851 10.4936 4.57891 10.6236 4.13037 10.6761V17.9377C4.13037 18.4899 4.57809 18.9377 5.13037 18.9377H7.13037V15.9377C7.13037 14.2808 8.47352 12.9377 10.1304 12.9377H12.1304C13.7872 12.9377 15.1304 14.2808 15.1304 15.9377V18.9377H17.1304C17.6827 18.9377 18.1304 18.4899 18.1304 17.9377V10.6761ZM17.0248 8.14883C17.0097 8.14129 16.9946 8.13394 16.9793 8.12681L15.8674 2.93768H16.5782C16.9906 2.93768 17.3607 3.19087 17.5102 3.57524L19.2981 8.17281C19.3755 8.37179 19.2608 8.59353 19.0537 8.64531C18.608 8.75672 18.1372 8.70504 17.7264 8.49961L17.0248 8.14883ZM14.9607 8.25151L13.822 2.93768H12.1304V8.18362L12.5162 8.33795C13.2314 8.62404 14.0293 8.62404 14.7445 8.33795L14.9607 8.25151ZM10.1304 2.93768H8.43882L7.30014 8.25152L7.5162 8.33795C8.23144 8.62404 9.02931 8.62404 9.74455 8.33795L10.1304 8.18362V2.93768ZM5.28146 8.12679L6.39341 2.93768H5.68258C5.27016 2.93768 4.90005 3.19086 4.75057 3.57523L2.96263 8.1728C2.88525 8.37179 2.99998 8.59353 3.2071 8.64531C3.65274 8.75672 4.12353 8.70504 4.53438 8.49961L5.23595 8.14883C5.25105 8.14128 5.26622 8.13393 5.28146 8.12679ZM13.1304 15.9377V18.9377H9.13037V15.9377C9.13037 15.3854 9.57809 14.9377 10.1304 14.9377H12.1304C12.6827 14.9377 13.1304 15.3854 13.1304 15.9377Z" fill="#6F767E"/>
</svg>
