<svg width="23" height="24" viewBox="0 0 23 24" fill="none" xmlns="http://www.w3.org/2000/svg">
<path d="M11.8183 0.673478C11.4023 0.239169 10.8516 0 10.2677 0C9.32993 0 8.49338 0.619494 8.18588 1.54152L4.26625 13.2844C4.15338 13.6212 4.09015 13.9673 4.05081 14.3148C4.0256 14.3346 1.08963 17.3783 1.08963 17.3783C0.38676 18.1108 0 19.0855 0 20.1221C0 21.1587 0.386961 22.1326 1.08943 22.8657C1.81386 23.6217 2.766 24 3.71833 24C4.67066 24 5.62274 23.6219 6.34742 22.8657C6.34742 22.8657 9.26357 19.8014 9.28264 19.7751C9.61727 19.7329 9.94903 19.6671 10.2697 19.5505L21.5234 15.4601C22.2427 15.1986 22.7737 14.5804 22.9435 13.8054C23.1139 13.0304 22.8936 12.2322 22.355 11.6695L11.8183 0.673478ZM12.4543 3.34652L15.9547 6.9994L6.92718 16.4207L12.4543 3.34652ZM5.55225 13.752L9.47187 2.00916C9.61646 1.57485 9.99099 1.42079 10.2677 1.42079C10.4232 1.42079 10.6518 1.46604 10.8555 1.67831L11.4225 2.26989L5.5742 16.1017C5.31463 15.3555 5.29439 14.5237 5.55204 13.7522L5.55225 13.752ZM5.38512 21.8609C4.46584 22.8196 2.97093 22.8196 2.05224 21.8609C1.60683 21.3961 1.3614 20.7786 1.3614 20.1217C1.3614 19.4647 1.60683 18.8472 2.05224 18.3825L4.17575 16.1662C4.38585 16.9904 4.79036 17.7616 5.38551 18.3825C5.98086 19.0037 6.70857 19.4331 7.50101 19.6531L5.38512 21.8609ZM16.9175 8.00408L19.5565 10.7578L8.4153 16.8773L16.9175 8.00408ZM21.617 13.4877C21.5513 13.7875 21.3542 14.0169 21.0759 14.1184L9.82221 18.2083C9.42111 18.3538 9.00131 18.4068 8.58648 18.3881L20.5643 11.8094L21.3923 12.6735C21.6009 12.8915 21.6824 13.1879 21.6167 13.4877L21.617 13.4877Z" fill="black"/>
</svg>
