<svg width="46" height="29" fill="none" xmlns="http://www.w3.org/2000/svg"><path d="M41.4 0H4.6C2.063 0 0 2.033 0 4.531V24.47C0 26.967 2.063 29 4.6 29h36.8c2.537 0 4.6-2.033 4.6-4.531V4.53C46 2.033 43.937 0 41.4 0Z" fill="#fff"/><path d="M21.391 11.354h-3.89L16.298 7.71a1.809 1.809 0 0 0-1.75-1.253c-.812 0-1.498.491-1.748 1.253l-1.203 3.644h-3.89c-.813 0-1.5.49-1.75 1.252-.25.76.011 1.556.668 2.027l3.147 2.252-1.202 3.644c-.25.76.01 1.556.668 2.026.328.236.705.354 1.082.354a1.86 1.86 0 0 0 1.082-.353l3.147-2.252 3.147 2.252c.658.47 1.507.47 2.163 0a1.77 1.77 0 0 0 .67-2.026l-1.203-3.644 3.147-2.252c.657-.47.92-1.266.669-2.027a1.812 1.812 0 0 0-1.75-1.253Zm-3.146 4.064a1.794 1.794 0 0 0-.67 2.027l1.203 3.644-3.148-2.252a1.855 1.855 0 0 0-2.163-.001l-3.147 2.252 1.203-3.644a1.791 1.791 0 0 0-.669-2.027l-3.147-2.252h3.89c.798 0 1.502-.502 1.75-1.252l1.197-3.656.004.01 1.203 3.645c.248.75.95 1.253 1.75 1.253h3.89l-3.146 2.253Z" fill="#8BCFF2"/><path d="M27.186 20.998a.511.511 0 0 0-.157-.082.926.926 0 0 0-1.002.19.939.939 0 0 0-.267.644.89.89 0 0 0 .073.344c.046.109.11.208.193.299a.973.973 0 0 0 .654.263c.055 0 .12-.009.174-.018a.562.562 0 0 0 .175-.054.515.515 0 0 0 .156-.082c.055-.027.101-.073.138-.109a.825.825 0 0 0 .202-.299.877.877 0 0 0 .075-.344.914.914 0 0 0-.414-.752Zm3.864.752c0 .5-.412.906-.92.906a.913.913 0 0 1-.92-.906c0-.5.412-.906.92-.906s.92.405.92.906Zm6.9 0c0 .5-.412.906-.92.906a.913.913 0 0 1-.92-.906c0-.5.412-.906.92-.906s.92.405.92.906Zm-3.45 0c0 .5-.411.906-.92.906a.913.913 0 0 1-.92-.906c0-.5.413-.906.92-.906.509 0 .92.405.92.906Zm5.327-.643a.94.94 0 0 0-.267.643c0 .236.1.472.267.644a.95.95 0 0 0 .303.19c.111.045.23.073.35.073.24 0 .479-.1.653-.263a.944.944 0 0 0 .267-.644.944.944 0 0 0-.267-.643c-.34-.335-.957-.335-1.306 0Z" fill="#84CBF1"/></svg>