<svg width="225" height="187" fill="none" xmlns="http://www.w3.org/2000/svg"><path d="M13.708 77.207a3.896 3.896 0 0 0 3.903-3.89 3.896 3.896 0 0 0-3.903-3.89 3.896 3.896 0 0 0-3.903 3.89 3.896 3.896 0 0 0 3.903 3.89Zm169.119 25.933a3.896 3.896 0 0 0 3.903-3.89 3.896 3.896 0 0 0-3.903-3.89 3.896 3.896 0 0 0-3.902 3.89 3.896 3.896 0 0 0 3.902 3.89Z" stroke="#DFE2E6" stroke-width="1.3"/><path d="M8.505 144.634v12.811m6.348-6.328H2m214.651-84.283v12.811M223 73.317h-12.853M177.624 2v12.811m6.349-6.328h-12.854m11.089 163.984-9.059 9.059m8.964.014-9.089-9.089M45.612 29.833l-9.059 9.06m8.964.013-9.089-9.089" stroke="#DFE2E6" stroke-width="2.6" stroke-linecap="round" stroke-linejoin="round"/><path fill-rule="evenodd" clip-rule="evenodd" d="M108.675 173.161c34.487 0 62.444-27.459 62.444-66.131 0-29.557-35.86-65.242-35.86-65.242-1.971-2.076-3.43-1.445-3.353 1.434 0 0 1.784 18.022-6.286 18.44-8.071.418-4.299-27.151-6.511-27.569a56.238 56.238 0 0 0-10.434-.973c-6.155 0-12.102.999-17.72 2.86-1.425.472 3.754 24.92-4.209 24.92-7.962 0-5.614-15.677-5.614-15.677.227-2.853-1.118-3.413-2.975-1.212 0 0-31.926 35.251-31.926 63.019 0 38.672 27.957 66.131 62.444 66.131Z" fill="#fff" stroke="#48515D" stroke-width="1.3"/><path d="M113.87 35.943c-6.151.215-12.06.124-17.61 2.18M78.548 49.19S59.413 71.86 51.845 95.061" stroke="#DADBDC" stroke-width="1.3" stroke-linecap="round"/><path d="M121.034 167.974c21.195 0 38.377-20.609 38.377-46.032 0-25.423-17.182-46.032-38.377-46.032-21.195 0-38.377 20.61-38.377 46.032 0 25.423 17.182 46.032 38.377 46.032Z" fill="#EDF1F4"/><path d="M99.569 84.987a2.598 2.598 0 0 0 2.602-2.593 2.598 2.598 0 0 0-2.602-2.593 2.598 2.598 0 0 0-2.602 2.593 2.598 2.598 0 0 0 2.602 2.593Zm19.514 0a2.598 2.598 0 0 0 2.601-2.593 2.597 2.597 0 0 0-2.601-2.593 2.598 2.598 0 0 0-2.602 2.593 2.598 2.598 0 0 0 2.602 2.593Z" fill="#3B4450"/><path fill-rule="evenodd" clip-rule="evenodd" d="M113.885 88.23c.245 0 .456.036.625.113.301.744.226.945.103 1.156l-4.54 7.804c-.386.663-.87 1.07-1.397 1.07-.528 0-1.013-.408-1.398-1.07l-4.54-7.804a1.5 1.5 0 0 1-.216-.595c.491-.638.7-.673.943-.673h10.42Z" fill="#E79494" stroke="#5C5C64" stroke-width="1.3"/><path d="m105.413 115.997 30.478-30.28c4.681-4.666 12.251-4.666 16.932 0a11.896 11.896 0 0 1 0 16.877c-13.048 12.906-25.996 25.812-38.944 38.718-4.482 4.468-11.554 4.666-16.235.596-.2-.199-.498-.298-.697-.596l-21.913-22.039a11.896 11.896 0 0 1 0-16.877c4.682-4.666 12.251-4.666 16.933 0l13.446 13.601Zm0 5.658-16.335-16.38c-3.088-3.078-8.167-3.078-11.255 0-3.087 3.077-3.087 8.14 0 11.218l21.913 22.039v-.099c3.087 3.078 8.167 3.078 11.254 0 29.781-29.485 9.263-9.034 38.945-38.718 3.087-3.077 3.087-8.14 0-11.218-3.088-3.078-8.168-3.078-11.255 0l-33.267 33.158Z" fill="#000"/><path fill-rule="evenodd" clip-rule="evenodd" d="m105.413 121.655 33.267-33.158c3.087-3.078 8.167-3.078 11.255 0 3.087 3.077 3.087 8.14 0 11.218-29.681 29.684-9.164 9.233-38.944 38.817-3.088 3.078-8.168 3.078-11.255 0v.099l-21.913-22.039c-3.087-3.078-3.087-8.141 0-11.218 3.088-3.078 8.168-3.078 11.255 0l16.335 16.281Z" fill="#7ACED7"/><path fill-rule="evenodd" clip-rule="evenodd" d="M60.974 115.2c1.498-2.439 3.691-4.045 6.088-4.717a9.54 9.54 0 0 1 7.378.93l5.29 3.044a9.697 9.697 0 0 1 4.51 5.782 9.684 9.684 0 0 1-.804 7.271c-1.498 2.439-3.69 4.045-6.088 4.717a9.54 9.54 0 0 1-7.377-.93l-5.29-3.044a9.696 9.696 0 0 1-4.51-5.782 9.683 9.683 0 0 1 .803-7.271Zm98.949-16.72c2.203 1.512 3.594 3.63 4.103 5.891a8.844 8.844 0 0 1-1.232 6.812l-3.099 4.756a9.104 9.104 0 0 1-5.635 3.918 9.131 9.131 0 0 1-6.771-1.1c-2.203-1.511-3.594-3.628-4.104-5.89a8.844 8.844 0 0 1 1.233-6.812l3.099-4.756a9.101 9.101 0 0 1 5.635-3.918 9.137 9.137 0 0 1 6.771 1.1Z" fill="#FEFEFE" stroke="#3E4853" stroke-width="1.3"/></svg>