<svg width="20" height="14" viewBox="0 0 20 14" fill="none" xmlns="http://www.w3.org/2000/svg">
<path fill-rule="evenodd" clip-rule="evenodd" d="M15 10.4286V11C15 12.6569 13.6569 14 12 14H3C1.34315 14 0 12.6569 0 11V3C0 1.34315 1.34315 0 3 0H12C13.6569 0 15 1.34315 15 3V3.57142L16.8375 2.2589C18.1613 1.31338 20 2.25962 20 3.88637V10.1136C20 11.7404 18.1613 12.6866 16.8375 11.7411L15 10.4286ZM3 2H12C12.5523 2 13 2.44772 13 3V11C13 11.5523 12.5523 12 12 12H3C2.44772 12 2 11.5523 2 11V3C2 2.44772 2.44772 2 3 2ZM15 7.97075L18 10.1136V3.88637L15 6.02923V7.97075Z" fill="#1A1D1F"/>
</svg>
