<svg width="22" height="22" viewBox="0 0 22 22" fill="none" xmlns="http://www.w3.org/2000/svg">
<path d="M11 22.0002C8.08262 22.0002 5.28453 20.8414 3.22181 18.7787C1.15894 16.716 0 13.9182 0 11.0011C0 8.08394 1.15894 5.28606 3.22181 3.22351C5.28468 1.1608 8.08262 0.00195312 11 0.00195312C13.9174 0.00195312 16.7155 1.1608 18.7782 3.22351C20.8411 5.28621 22 8.08394 22 11.0011C22 13.9182 20.8411 16.7161 18.7782 18.7787C16.7153 20.8414 13.9174 22.0002 11 22.0002ZM11 0.881884C8.316 0.881884 5.74213 1.94801 3.84434 3.84574C1.94646 5.74348 0.880251 8.3173 0.880251 11.0008C0.880251 13.6844 1.94646 16.2583 3.84434 18.1559C5.74223 20.0537 8.31625 21.1198 11 21.1198C13.6837 21.1198 16.2579 20.0537 18.1557 18.1559C20.0535 16.2582 21.1197 13.6844 21.1197 11.0008C21.1197 8.3173 20.0535 5.74338 18.1557 3.84574C16.2578 1.94801 13.6837 0.881884 11 0.881884Z" fill="black"/>
<path d="M1.83028 16.6805C1.5873 16.6964 1.37751 16.5122 1.3618 16.2692C1.34589 16.0263 1.53014 15.8165 1.77312 15.8006C3.52095 15.603 5.21005 15.0511 6.73748 14.179C8.2647 13.3067 9.59848 12.1326 10.6568 10.7278C10.8135 10.5617 11.0717 10.5432 11.2506 10.6854C11.4294 10.8276 11.4696 11.0831 11.3431 11.2734C10.2164 12.7697 8.79641 14.0207 7.17002 14.9495C5.54338 15.8785 3.74451 16.466 1.88298 16.6762L1.83028 16.6805Z" fill="black"/>
<path d="M5.7201 20.4426C5.47712 20.4585 5.26733 20.2743 5.25142 20.0313C5.23571 19.7883 5.41996 19.5786 5.66294 19.5627C9.58779 19.061 14.2869 15.1233 16.3768 12.4835V12.4837C16.5336 12.3175 16.7917 12.2991 16.9706 12.4413C17.1494 12.5835 17.1897 12.8388 17.0632 13.0291C14.52 16.2497 9.68021 19.9408 5.77703 20.4381L5.7201 20.4426Z" fill="black"/>
<path d="M11 11.4408C10.8317 11.4412 10.6781 11.3456 10.604 11.1945C8.68117 7.28769 8.6857 3.59193 10.604 0.22154C10.7256 0.0102004 10.9955 -0.0626679 11.2068 0.0587123C11.4182 0.180294 11.4911 0.450166 11.3697 0.66149C9.56566 3.80722 9.56999 7.12471 11.3697 10.8068C11.4211 10.9119 11.4288 11.0331 11.3909 11.1437C11.3528 11.2543 11.2724 11.3452 11.1671 11.3965C11.1149 11.422 11.0581 11.4369 11 11.4405L11 11.4408Z" fill="black"/>
<path d="M7.03979 14.9605C6.87145 14.9608 6.71784 14.8652 6.64379 14.7142C3.87179 9.07807 3.28661 4.79708 4.88379 1.98131C5.00538 1.76997 5.27527 1.6971 5.48661 1.81848C5.69797 1.94006 5.77084 2.20993 5.64945 2.42126C4.21063 4.92906 4.8223 9.04688 7.40945 14.3265C7.46091 14.4315 7.46858 14.5527 7.43067 14.6633C7.39256 14.7739 7.31222 14.8648 7.20694 14.9161C7.15468 14.9416 7.09792 14.9566 7.03978 14.9601L7.03979 14.9605Z" fill="black"/>
<path d="M20.1698 16.6804C20.0085 16.681 19.8598 16.5932 19.7825 16.4518C17.9522 13.108 15.0745 11.4668 11.0001 11.4405C10.7571 11.4405 10.5601 11.2435 10.5601 11.0005C10.5601 10.7576 10.7571 10.5605 11.0001 10.5605C15.4264 10.5914 18.5505 12.3776 20.5523 16.0292C20.6087 16.1319 20.6219 16.2527 20.5887 16.3651C20.5557 16.4772 20.4793 16.5717 20.3763 16.6277C20.3129 16.6618 20.2418 16.6801 20.1697 16.6803L20.1698 16.6804Z" fill="black"/>
<path d="M21.5602 11.4413C21.3989 11.4417 21.2504 11.3539 21.173 11.2125C19.3339 7.85559 13.772 5.74787 9.68023 5.72173C9.43725 5.72173 9.24023 5.52472 9.24023 5.28176C9.24023 5.0388 9.43725 4.8418 9.68023 4.8418C14.1199 4.87263 19.9189 7.10332 21.9429 10.7901C21.9991 10.8927 22.0122 11.0135 21.9792 11.1258C21.9462 11.2381 21.8698 11.3326 21.7669 11.3884C21.7033 11.4228 21.6324 11.4409 21.5601 11.4412L21.5602 11.4413Z" fill="black"/>
</svg>
