<svg width="35" height="23" xmlns="http://www.w3.org/2000/svg"><path d="M4.058 0h16.68c.453 0 .82.36.82.804v.862c0 .442.186.846.484 1.137a1.654 1.654 0 0 0 2.318 0 1.59 1.59 0 0 0 .484-1.137V.804c0-.443.368-.804.82-.804h5.278a4.09 4.09 0 0 1 2.867 1.168A3.93 3.93 0 0 1 35 3.978v15.044a3.93 3.93 0 0 1-1.191 2.81A4.088 4.088 0 0 1 30.942 23h-5.278a.813.813 0 0 1-.82-.804v-.862a1.59 1.59 0 0 0-.484-1.137 1.654 1.654 0 0 0-2.318 0 1.59 1.59 0 0 0-.484 1.137v.862a.813.813 0 0 1-.82.804H4.058a4.088 4.088 0 0 1-2.867-1.168A3.93 3.93 0 0 1 0 19.022V3.978a3.93 3.93 0 0 1 1.191-2.81A4.088 4.088 0 0 1 4.058 0Zm23.559 17.204a.813.813 0 0 1-.82-.805c0-.443.367-.804.82-.804h3.168c.452 0 .82.36.82.804a.813.813 0 0 1-.82.805h-3.168Zm0-4.9a.813.813 0 0 1-.82-.804c0-.444.367-.804.82-.804h3.168c.452 0 .82.36.82.804a.813.813 0 0 1-.82.804h-3.168Zm0-4.9a.813.813 0 0 1-.82-.804c0-.443.367-.804.82-.804h3.168c.452 0 .82.36.82.804a.813.813 0 0 1-.82.805h-3.168Zm-21.87 6.177a.813.813 0 0 1-.82-.805c0-.443.367-.804.82-.804h8.657c.452 0 .82.36.82.804a.812.812 0 0 1-.82.805H5.747Zm0 4.589a.813.813 0 0 1-.82-.804c0-.444.367-.805.82-.805h4.724c.454 0 .82.36.82.805a.812.812 0 0 1-.82.804H5.747Zm8.226 0a.813.813 0 0 1-.82-.804c0-.444.367-.805.82-.805h4.725c.452 0 .82.36.82.805a.812.812 0 0 1-.82.804h-4.725ZM24.02 4.784v13.432c.576.146 1.09.443 1.5.843a3.18 3.18 0 0 1 .964 2.275v.058h4.457a2.43 2.43 0 0 0 1.706-.697c.439-.43.711-1.021.711-1.672V3.979a2.34 2.34 0 0 0-.71-1.673 2.433 2.433 0 0 0-1.707-.697h-4.457v.06c0 .886-.37 1.691-.964 2.274-.41.4-.924.697-1.5.843v-.002Zm-1.64 13.432V4.784a3.305 3.305 0 0 1-1.5-.844 3.177 3.177 0 0 1-.963-2.274v-.059H4.058a2.43 2.43 0 0 0-1.706.697 2.339 2.339 0 0 0-.711 1.673V19.02c0 .651.272 1.244.71 1.673.44.43 1.043.697 1.707.697h15.86v-.059c0-.886.368-1.691.964-2.274.408-.4.923-.697 1.499-.843v.002Z" fill="#FFF"/></svg>